<?xml version="1.0" encoding="UTF-8" standalone="no"?>
<!-- Created with Inkscape (http://www.inkscape.org/) -->
<svg
   xmlns:dc="http://purl.org/dc/elements/1.1/"
   xmlns:cc="http://web.resource.org/cc/"
   xmlns:rdf="http://www.w3.org/1999/02/22-rdf-syntax-ns#"
   xmlns:svg="http://www.w3.org/2000/svg"
   xmlns="http://www.w3.org/2000/svg"
   xmlns:xlink="http://www.w3.org/1999/xlink"
   xmlns:sodipodi="http://sodipodi.sourceforge.net/DTD/sodipodi-0.dtd"
   xmlns:inkscape="http://www.inkscape.org/namespaces/inkscape"
   width="744.09448819"
   height="1052.3622047"
   id="svg2"
   sodipodi:version="0.32"
   inkscape:version="0.45"
   sodipodi:docbase="/home/nikhil/workspace/pixelframe/images"
   sodipodi:docname="logo_new.svg"
   inkscape:output_extension="org.inkscape.output.svg.inkscape"
   inkscape:export-filename="/home/nikhil/workspace/pixelframe/images/logo_new.png"
   inkscape:export-xdpi="6.1417332"
   inkscape:export-ydpi="6.1417332"
   sodipodi:modified="TRUE">
  <defs
     id="defs4">
    <linearGradient
       id="linearGradient5172">
      <stop
         style="stop-color:#ffffff;stop-opacity:0;"
         offset="0"
         id="stop5174" />
      <stop
         style="stop-color:#000000;stop-opacity:1;"
         offset="1"
         id="stop5176" />
    </linearGradient>
    <linearGradient
       inkscape:collect="always"
       xlink:href="#linearGradient5172"
       id="linearGradient7278"
       gradientUnits="userSpaceOnUse"
       gradientTransform="matrix(1,0,0,1.0348837,0,-27.280066)"
       x1="357"
       y1="622.01825"
       x2="356"
       y2="710.36218" />
  </defs>
  <sodipodi:namedview
     id="base"
     pagecolor="#000000"
     bordercolor="#666666"
     borderopacity="1.0"
     gridtolerance="10000"
     guidetolerance="10"
     objecttolerance="10"
     inkscape:pageopacity="1"
     inkscape:pageshadow="2"
     inkscape:zoom="1"
     inkscape:cx="340.09492"
     inkscape:cy="557.63121"
     inkscape:document-units="px"
     inkscape:current-layer="layer1"
     inkscape:window-width="1280"
     inkscape:window-height="969"
     inkscape:window-x="0"
     inkscape:window-y="30" />
  <metadata
     id="metadata7">
    <rdf:RDF>
      <cc:Work
         rdf:about="">
        <dc:format>image/svg+xml</dc:format>
        <dc:type
           rdf:resource="http://purl.org/dc/dcmitype/StillImage" />
      </cc:Work>
    </rdf:RDF>
  </metadata>
  <g
     inkscape:label="Layer 1"
     inkscape:groupmode="layer"
     id="layer1">
    <g
       id="g2498">
      <rect
         inkscape:export-ydpi="9.9557524"
         inkscape:export-xdpi="9.9557524"
         inkscape:export-filename="/home/nikhil/workspace/pixelframe/images/logo_new.png"
         y="169.86221"
         x="103"
         height="216"
         width="216"
         id="rect5227"
         style="fill:#aad400;fill-opacity:1;fill-rule:nonzero;stroke:#ffffff;stroke-width:10;stroke-linecap:round;stroke-linejoin:round;stroke-miterlimit:4;stroke-dasharray:none;stroke-dashoffset:0;stroke-opacity:1" />
      <path
         inkscape:export-ydpi="9.9557524"
         inkscape:export-xdpi="9.9557524"
         inkscape:export-filename="/home/nikhil/workspace/pixelframe/images/logo_new.png"
         id="path3281"
         d="M 271.34375 165.21875 C 265.82085 165.30492 261.41358 169.8521 261.5 175.375 L 261.5 207.375 L 152.34375 207.375 C 151.68877 207.25201 151.02034 207.20816 150.34375 207.21875 C 147.59048 207.26171 145.12399 208.42154 143.34375 210.25 C 143.11527 210.48467 142.89218 210.71269 142.6875 210.96875 C 142.67844 210.98008 142.66526 210.98863 142.65625 211 C 142.46198 211.23461 142.29859 211.49613 142.125 211.75 C 141.99087 211.94616 141.83966 212.13658 141.71875 212.34375 C 140.52699 214.38567 140.12932 216.73971 140.5 219 L 140.5 328.375 L 108.5 328.375 C 104.89364 328.324 101.53682 330.22877 99.71875 333.34375 C 97.900686 336.45871 97.900686 340.29128 99.71875 343.40625 C 101.53682 346.52124 104.89364 348.426 108.5 348.375 L 140.5 348.375 L 140.5 380.375 C 140.449 383.98136 142.35377 387.33818 145.46875 389.15625 C 148.58373 390.97432 152.41628 390.97431 155.53125 389.15625 C 158.64622 387.33819 160.551 383.98136 160.5 380.375 L 160.5 348.375 L 269.875 348.375 C 272.13529 348.74568 274.48934 348.34802 276.53125 347.15625 C 277.31 346.70174 278.01012 346.15774 278.625 345.53125 C 278.62987 345.52651 278.62014 345.50475 278.625 345.5 C 278.62975 345.49514 278.65151 345.50487 278.65625 345.5 C 279.28275 344.88512 279.82673 344.185 280.28125 343.40625 C 281.47302 341.36434 281.87068 339.01029 281.5 336.75 L 281.5 227.375 L 313.5 227.375 C 317.10636 227.426 320.46318 225.52123 322.28125 222.40625 C 324.09932 219.29127 324.09931 215.45872 322.28125 212.34375 C 320.46319 209.22878 317.10636 207.324 313.5 207.375 L 281.5 207.375 L 281.5 175.375 C 281.54235 172.66863 280.47642 170.07017 278.5625 168.15625 C 276.64859 166.24234 274.05012 165.1764 271.34375 165.21875 z M 160.5 227.375 L 261.5 227.375 L 261.5 328.375 L 160.5 328.375 L 160.5 227.375 z "
         style="fill:#ffffff;fill-opacity:1;fill-rule:evenodd;stroke:none;stroke-width:20;stroke-linecap:round;stroke-linejoin:round;stroke-miterlimit:4;stroke-dasharray:none;stroke-opacity:1" />
    </g>
    <g
       id="g2493"
       inkscape:export-filename="/home/nikhil/workspace/pixelframe/images/logo.png"
       inkscape:export-xdpi="15.979858"
       inkscape:export-ydpi="15.979858">
      <rect
         style="fill:#aad400;fill-opacity:1;fill-rule:nonzero;stroke:#ffffff;stroke-width:11.86440659;stroke-linecap:round;stroke-linejoin:round;stroke-miterlimit:4;stroke-dasharray:none;stroke-dashoffset:0;stroke-opacity:1"
         id="rect12388"
         width="128.13559"
         height="128.13559"
         x="491.93219"
         y="55.794403" />
      <path
         id="path12394"
         d="M 586.09375 49.46875 C 580.57085 49.554923 576.16358 54.102104 576.25 59.625 L 576.25 79.625 L 527.59375 79.625 C 526.93877 79.50201 526.27034 79.458163 525.59375 79.46875 C 522.84048 79.511709 520.37399 80.671539 518.59375 82.5 C 518.36527 82.734673 518.14218 82.962692 517.9375 83.21875 C 517.92844 83.230083 517.91526 83.238626 517.90625 83.25 C 517.71198 83.48461 517.54859 83.746133 517.375 84 C 517.24087 84.196158 517.08966 84.386584 516.96875 84.59375 C 515.77698 86.635668 515.37932 88.989713 515.75 91.25 L 515.75 140.125 L 495.75 140.125 C 492.14364 140.074 488.78682 141.97877 486.96875 145.09375 C 485.15068 148.20873 485.15069 152.04128 486.96875 155.15625 C 488.78681 158.27122 492.14364 160.176 495.75 160.125 L 515.75 160.125 L 515.75 180.125 C 515.699 183.73136 517.60377 187.08818 520.71875 188.90625 C 523.83371 190.72431 527.66628 190.72431 530.78125 188.90625 C 533.89624 187.08818 535.801 183.73136 535.75 180.125 L 535.75 160.125 L 584.625 160.125 C 586.88529 160.49568 589.23934 160.09802 591.28125 158.90625 C 592.06 158.45173 592.76012 157.90775 593.375 157.28125 C 593.37987 157.27651 593.37014 157.25475 593.375 157.25 C 593.37975 157.24514 593.40151 157.25487 593.40625 157.25 C 594.03275 156.63512 594.57673 155.935 595.03125 155.15625 C 596.22302 153.11433 596.62068 150.76029 596.25 148.5 L 596.25 99.625 L 616.25 99.625 C 619.85636 99.676003 623.21318 97.771225 625.03125 94.65625 C 626.84932 91.541271 626.84931 87.708726 625.03125 84.59375 C 623.21319 81.478778 619.85636 79.573997 616.25 79.625 L 596.25 79.625 L 596.25 59.625 C 596.29235 56.918635 595.22642 54.320173 593.3125 52.40625 C 591.39856 50.492326 588.80012 49.426401 586.09375 49.46875 z M 535.75 99.625 L 576.25 99.625 L 576.25 140.125 L 535.75 140.125 L 535.75 99.625 z "
         style="fill:#ffffff;fill-opacity:1;fill-rule:evenodd;stroke:none;stroke-width:20;stroke-linecap:round;stroke-linejoin:round;stroke-miterlimit:4;stroke-dasharray:none;stroke-opacity:1" />
      <path
         style="fill:#ffffff;fill-opacity:1;fill-rule:evenodd;stroke:none;stroke-width:20;stroke-linecap:round;stroke-linejoin:round;stroke-miterlimit:4;stroke-dasharray:none;stroke-opacity:1"
         d="M 586.09375 49.46875 C 580.57085 49.554923 576.16358 54.102104 576.25 59.625 L 576.25 79.625 L 527.59375 79.625 C 526.93877 79.50201 526.27034 79.458163 525.59375 79.46875 C 522.84048 79.511709 520.37399 80.671539 518.59375 82.5 C 518.36527 82.734673 518.14218 82.962692 517.9375 83.21875 C 517.92844 83.230083 517.91526 83.238626 517.90625 83.25 C 517.71198 83.48461 517.54859 83.746133 517.375 84 C 517.24087 84.196158 517.08966 84.386584 516.96875 84.59375 C 515.77698 86.635668 515.37932 88.989713 515.75 91.25 L 515.75 140.125 L 495.75 140.125 C 492.14364 140.074 488.78682 141.97877 486.96875 145.09375 C 485.15068 148.20873 485.15069 152.04128 486.96875 155.15625 C 488.78681 158.27122 492.14364 160.176 495.75 160.125 L 515.75 160.125 L 515.75 180.125 C 515.699 183.73136 517.60377 187.08818 520.71875 188.90625 C 523.83371 190.72431 527.66628 190.72431 530.78125 188.90625 C 533.89624 187.08818 535.801 183.73136 535.75 180.125 L 535.75 160.125 L 584.625 160.125 C 586.88529 160.49568 589.23934 160.09802 591.28125 158.90625 C 592.06 158.45173 592.76012 157.90775 593.375 157.28125 C 593.37987 157.27651 593.37014 157.25475 593.375 157.25 C 593.37975 157.24514 593.40151 157.25487 593.40625 157.25 C 594.03275 156.63512 594.57673 155.935 595.03125 155.15625 C 596.22302 153.11433 596.62068 150.76029 596.25 148.5 L 596.25 99.625 L 616.25 99.625 C 619.85636 99.676003 623.21318 97.771225 625.03125 94.65625 C 626.84932 91.541271 626.84931 87.708726 625.03125 84.59375 C 623.21319 81.478778 619.85636 79.573997 616.25 79.625 L 596.25 79.625 L 596.25 59.625 C 596.29235 56.918635 595.22642 54.320173 593.3125 52.40625 C 591.39856 50.492326 588.80012 49.426401 586.09375 49.46875 z M 535.75 99.625 L 576.25 99.625 L 576.25 140.125 L 535.75 140.125 L 535.75 99.625 z "
         id="path2491" />
    </g>
    <g
       id="g2502"
       transform="matrix(0.5,0,0,0.5,278,215.93433)">
      <rect
         y="55.794403"
         x="491.93219"
         height="128.13559"
         width="128.13559"
         id="rect2504"
         style="fill:#aad400;fill-opacity:1;fill-rule:nonzero;stroke:#ffffff;stroke-width:11.86440659;stroke-linecap:round;stroke-linejoin:round;stroke-miterlimit:4;stroke-dasharray:none;stroke-dashoffset:0;stroke-opacity:1" />
      <path
         style="fill:#ffffff;fill-opacity:1;fill-rule:evenodd;stroke:none;stroke-width:20;stroke-linecap:round;stroke-linejoin:round;stroke-miterlimit:4;stroke-dasharray:none;stroke-opacity:1"
         d="M 586.09375,49.46875 C 580.57085,49.554923 576.16358,54.102104 576.25,59.625 L 576.25,79.625 L 527.59375,79.625 C 526.93877,79.50201 526.27034,79.458163 525.59375,79.46875 C 522.84048,79.511709 520.37399,80.671539 518.59375,82.5 C 518.36527,82.734673 518.14218,82.962692 517.9375,83.21875 C 517.92844,83.230083 517.91526,83.238626 517.90625,83.25 C 517.71198,83.48461 517.54859,83.746133 517.375,84 C 517.24087,84.196158 517.08966,84.386584 516.96875,84.59375 C 515.77698,86.635668 515.37932,88.989713 515.75,91.25 L 515.75,140.125 L 495.75,140.125 C 492.14364,140.074 488.78682,141.97877 486.96875,145.09375 C 485.15068,148.20873 485.15069,152.04128 486.96875,155.15625 C 488.78681,158.27122 492.14364,160.176 495.75,160.125 L 515.75,160.125 L 515.75,180.125 C 515.699,183.73136 517.60377,187.08818 520.71875,188.90625 C 523.83371,190.72431 527.66628,190.72431 530.78125,188.90625 C 533.89624,187.08818 535.801,183.73136 535.75,180.125 L 535.75,160.125 L 584.625,160.125 C 586.88529,160.49568 589.23934,160.09802 591.28125,158.90625 C 592.06,158.45173 592.76012,157.90775 593.375,157.28125 C 593.37987,157.27651 593.37014,157.25475 593.375,157.25 C 593.37975,157.24514 593.40151,157.25487 593.40625,157.25 C 594.03275,156.63512 594.57673,155.935 595.03125,155.15625 C 596.22302,153.11433 596.62068,150.76029 596.25,148.5 L 596.25,99.625 L 616.25,99.625 C 619.85636,99.676003 623.21318,97.771225 625.03125,94.65625 C 626.84932,91.541271 626.84931,87.708726 625.03125,84.59375 C 623.21319,81.478778 619.85636,79.573997 616.25,79.625 L 596.25,79.625 L 596.25,59.625 C 596.29235,56.918635 595.22642,54.320173 593.3125,52.40625 C 591.39856,50.492326 588.80012,49.426401 586.09375,49.46875 z M 535.75,99.625 L 576.25,99.625 L 576.25,140.125 L 535.75,140.125 L 535.75,99.625 z "
         id="path2506" />
      <path
         id="path2508"
         d="M 586.09375,49.46875 C 580.57085,49.554923 576.16358,54.102104 576.25,59.625 L 576.25,79.625 L 527.59375,79.625 C 526.93877,79.50201 526.27034,79.458163 525.59375,79.46875 C 522.84048,79.511709 520.37399,80.671539 518.59375,82.5 C 518.36527,82.734673 518.14218,82.962692 517.9375,83.21875 C 517.92844,83.230083 517.91526,83.238626 517.90625,83.25 C 517.71198,83.48461 517.54859,83.746133 517.375,84 C 517.24087,84.196158 517.08966,84.386584 516.96875,84.59375 C 515.77698,86.635668 515.37932,88.989713 515.75,91.25 L 515.75,140.125 L 495.75,140.125 C 492.14364,140.074 488.78682,141.97877 486.96875,145.09375 C 485.15068,148.20873 485.15069,152.04128 486.96875,155.15625 C 488.78681,158.27122 492.14364,160.176 495.75,160.125 L 515.75,160.125 L 515.75,180.125 C 515.699,183.73136 517.60377,187.08818 520.71875,188.90625 C 523.83371,190.72431 527.66628,190.72431 530.78125,188.90625 C 533.89624,187.08818 535.801,183.73136 535.75,180.125 L 535.75,160.125 L 584.625,160.125 C 586.88529,160.49568 589.23934,160.09802 591.28125,158.90625 C 592.06,158.45173 592.76012,157.90775 593.375,157.28125 C 593.37987,157.27651 593.37014,157.25475 593.375,157.25 C 593.37975,157.24514 593.40151,157.25487 593.40625,157.25 C 594.03275,156.63512 594.57673,155.935 595.03125,155.15625 C 596.22302,153.11433 596.62068,150.76029 596.25,148.5 L 596.25,99.625 L 616.25,99.625 C 619.85636,99.676003 623.21318,97.771225 625.03125,94.65625 C 626.84932,91.541271 626.84931,87.708726 625.03125,84.59375 C 623.21319,81.478778 619.85636,79.573997 616.25,79.625 L 596.25,79.625 L 596.25,59.625 C 596.29235,56.918635 595.22642,54.320173 593.3125,52.40625 C 591.39856,50.492326 588.80012,49.426401 586.09375,49.46875 z M 535.75,99.625 L 576.25,99.625 L 576.25,140.125 L 535.75,140.125 L 535.75,99.625 z "
         style="fill:#ffffff;fill-opacity:1;fill-rule:evenodd;stroke:none;stroke-width:20;stroke-linecap:round;stroke-linejoin:round;stroke-miterlimit:4;stroke-dasharray:none;stroke-opacity:1" />
    </g>
    <g
       transform="matrix(0.25,0,0,0.25,418,352.90149)"
       id="g2510">
      <rect
         style="fill:#aad400;fill-opacity:1;fill-rule:nonzero;stroke:#ffffff;stroke-width:11.86440659;stroke-linecap:round;stroke-linejoin:round;stroke-miterlimit:4;stroke-dasharray:none;stroke-dashoffset:0;stroke-opacity:1"
         id="rect2512"
         width="128.13559"
         height="128.13559"
         x="491.93219"
         y="55.794403" />
      <path
         id="path2514"
         d="M 586.09375,49.46875 C 580.57085,49.554923 576.16358,54.102104 576.25,59.625 L 576.25,79.625 L 527.59375,79.625 C 526.93877,79.50201 526.27034,79.458163 525.59375,79.46875 C 522.84048,79.511709 520.37399,80.671539 518.59375,82.5 C 518.36527,82.734673 518.14218,82.962692 517.9375,83.21875 C 517.92844,83.230083 517.91526,83.238626 517.90625,83.25 C 517.71198,83.48461 517.54859,83.746133 517.375,84 C 517.24087,84.196158 517.08966,84.386584 516.96875,84.59375 C 515.77698,86.635668 515.37932,88.989713 515.75,91.25 L 515.75,140.125 L 495.75,140.125 C 492.14364,140.074 488.78682,141.97877 486.96875,145.09375 C 485.15068,148.20873 485.15069,152.04128 486.96875,155.15625 C 488.78681,158.27122 492.14364,160.176 495.75,160.125 L 515.75,160.125 L 515.75,180.125 C 515.699,183.73136 517.60377,187.08818 520.71875,188.90625 C 523.83371,190.72431 527.66628,190.72431 530.78125,188.90625 C 533.89624,187.08818 535.801,183.73136 535.75,180.125 L 535.75,160.125 L 584.625,160.125 C 586.88529,160.49568 589.23934,160.09802 591.28125,158.90625 C 592.06,158.45173 592.76012,157.90775 593.375,157.28125 C 593.37987,157.27651 593.37014,157.25475 593.375,157.25 C 593.37975,157.24514 593.40151,157.25487 593.40625,157.25 C 594.03275,156.63512 594.57673,155.935 595.03125,155.15625 C 596.22302,153.11433 596.62068,150.76029 596.25,148.5 L 596.25,99.625 L 616.25,99.625 C 619.85636,99.676003 623.21318,97.771225 625.03125,94.65625 C 626.84932,91.541271 626.84931,87.708726 625.03125,84.59375 C 623.21319,81.478778 619.85636,79.573997 616.25,79.625 L 596.25,79.625 L 596.25,59.625 C 596.29235,56.918635 595.22642,54.320173 593.3125,52.40625 C 591.39856,50.492326 588.80012,49.426401 586.09375,49.46875 z M 535.75,99.625 L 576.25,99.625 L 576.25,140.125 L 535.75,140.125 L 535.75,99.625 z "
         style="fill:#ffffff;fill-opacity:1;fill-rule:evenodd;stroke:none;stroke-width:20;stroke-linecap:round;stroke-linejoin:round;stroke-miterlimit:4;stroke-dasharray:none;stroke-opacity:1" />
      <path
         style="fill:#ffffff;fill-opacity:1;fill-rule:evenodd;stroke:none;stroke-width:20;stroke-linecap:round;stroke-linejoin:round;stroke-miterlimit:4;stroke-dasharray:none;stroke-opacity:1"
         d="M 586.09375,49.46875 C 580.57085,49.554923 576.16358,54.102104 576.25,59.625 L 576.25,79.625 L 527.59375,79.625 C 526.93877,79.50201 526.27034,79.458163 525.59375,79.46875 C 522.84048,79.511709 520.37399,80.671539 518.59375,82.5 C 518.36527,82.734673 518.14218,82.962692 517.9375,83.21875 C 517.92844,83.230083 517.91526,83.238626 517.90625,83.25 C 517.71198,83.48461 517.54859,83.746133 517.375,84 C 517.24087,84.196158 517.08966,84.386584 516.96875,84.59375 C 515.77698,86.635668 515.37932,88.989713 515.75,91.25 L 515.75,140.125 L 495.75,140.125 C 492.14364,140.074 488.78682,141.97877 486.96875,145.09375 C 485.15068,148.20873 485.15069,152.04128 486.96875,155.15625 C 488.78681,158.27122 492.14364,160.176 495.75,160.125 L 515.75,160.125 L 515.75,180.125 C 515.699,183.73136 517.60377,187.08818 520.71875,188.90625 C 523.83371,190.72431 527.66628,190.72431 530.78125,188.90625 C 533.89624,187.08818 535.801,183.73136 535.75,180.125 L 535.75,160.125 L 584.625,160.125 C 586.88529,160.49568 589.23934,160.09802 591.28125,158.90625 C 592.06,158.45173 592.76012,157.90775 593.375,157.28125 C 593.37987,157.27651 593.37014,157.25475 593.375,157.25 C 593.37975,157.24514 593.40151,157.25487 593.40625,157.25 C 594.03275,156.63512 594.57673,155.935 595.03125,155.15625 C 596.22302,153.11433 596.62068,150.76029 596.25,148.5 L 596.25,99.625 L 616.25,99.625 C 619.85636,99.676003 623.21318,97.771225 625.03125,94.65625 C 626.84932,91.541271 626.84931,87.708726 625.03125,84.59375 C 623.21319,81.478778 619.85636,79.573997 616.25,79.625 L 596.25,79.625 L 596.25,59.625 C 596.29235,56.918635 595.22642,54.320173 593.3125,52.40625 C 591.39856,50.492326 588.80012,49.426401 586.09375,49.46875 z M 535.75,99.625 L 576.25,99.625 L 576.25,140.125 L 535.75,140.125 L 535.75,99.625 z "
         id="path2516" />
    </g>
    <g
       id="g2518"
       transform="matrix(0.125,0,0,0.125,485.5,431.88507)">
      <rect
         y="55.794403"
         x="491.93219"
         height="128.13559"
         width="128.13559"
         id="rect2520"
         style="fill:#aad400;fill-opacity:1;fill-rule:nonzero;stroke:#ffffff;stroke-width:11.86440659;stroke-linecap:round;stroke-linejoin:round;stroke-miterlimit:4;stroke-dasharray:none;stroke-dashoffset:0;stroke-opacity:1" />
      <path
         style="fill:#ffffff;fill-opacity:1;fill-rule:evenodd;stroke:none;stroke-width:20;stroke-linecap:round;stroke-linejoin:round;stroke-miterlimit:4;stroke-dasharray:none;stroke-opacity:1"
         d="M 586.09375,49.46875 C 580.57085,49.554923 576.16358,54.102104 576.25,59.625 L 576.25,79.625 L 527.59375,79.625 C 526.93877,79.50201 526.27034,79.458163 525.59375,79.46875 C 522.84048,79.511709 520.37399,80.671539 518.59375,82.5 C 518.36527,82.734673 518.14218,82.962692 517.9375,83.21875 C 517.92844,83.230083 517.91526,83.238626 517.90625,83.25 C 517.71198,83.48461 517.54859,83.746133 517.375,84 C 517.24087,84.196158 517.08966,84.386584 516.96875,84.59375 C 515.77698,86.635668 515.37932,88.989713 515.75,91.25 L 515.75,140.125 L 495.75,140.125 C 492.14364,140.074 488.78682,141.97877 486.96875,145.09375 C 485.15068,148.20873 485.15069,152.04128 486.96875,155.15625 C 488.78681,158.27122 492.14364,160.176 495.75,160.125 L 515.75,160.125 L 515.75,180.125 C 515.699,183.73136 517.60377,187.08818 520.71875,188.90625 C 523.83371,190.72431 527.66628,190.72431 530.78125,188.90625 C 533.89624,187.08818 535.801,183.73136 535.75,180.125 L 535.75,160.125 L 584.625,160.125 C 586.88529,160.49568 589.23934,160.09802 591.28125,158.90625 C 592.06,158.45173 592.76012,157.90775 593.375,157.28125 C 593.37987,157.27651 593.37014,157.25475 593.375,157.25 C 593.37975,157.24514 593.40151,157.25487 593.40625,157.25 C 594.03275,156.63512 594.57673,155.935 595.03125,155.15625 C 596.22302,153.11433 596.62068,150.76029 596.25,148.5 L 596.25,99.625 L 616.25,99.625 C 619.85636,99.676003 623.21318,97.771225 625.03125,94.65625 C 626.84932,91.541271 626.84931,87.708726 625.03125,84.59375 C 623.21319,81.478778 619.85636,79.573997 616.25,79.625 L 596.25,79.625 L 596.25,59.625 C 596.29235,56.918635 595.22642,54.320173 593.3125,52.40625 C 591.39856,50.492326 588.80012,49.426401 586.09375,49.46875 z M 535.75,99.625 L 576.25,99.625 L 576.25,140.125 L 535.75,140.125 L 535.75,99.625 z "
         id="path2522" />
      <path
         id="path2524"
         d="M 586.09375,49.46875 C 580.57085,49.554923 576.16358,54.102104 576.25,59.625 L 576.25,79.625 L 527.59375,79.625 C 526.93877,79.50201 526.27034,79.458163 525.59375,79.46875 C 522.84048,79.511709 520.37399,80.671539 518.59375,82.5 C 518.36527,82.734673 518.14218,82.962692 517.9375,83.21875 C 517.92844,83.230083 517.91526,83.238626 517.90625,83.25 C 517.71198,83.48461 517.54859,83.746133 517.375,84 C 517.24087,84.196158 517.08966,84.386584 516.96875,84.59375 C 515.77698,86.635668 515.37932,88.989713 515.75,91.25 L 515.75,140.125 L 495.75,140.125 C 492.14364,140.074 488.78682,141.97877 486.96875,145.09375 C 485.15068,148.20873 485.15069,152.04128 486.96875,155.15625 C 488.78681,158.27122 492.14364,160.176 495.75,160.125 L 515.75,160.125 L 515.75,180.125 C 515.699,183.73136 517.60377,187.08818 520.71875,188.90625 C 523.83371,190.72431 527.66628,190.72431 530.78125,188.90625 C 533.89624,187.08818 535.801,183.73136 535.75,180.125 L 535.75,160.125 L 584.625,160.125 C 586.88529,160.49568 589.23934,160.09802 591.28125,158.90625 C 592.06,158.45173 592.76012,157.90775 593.375,157.28125 C 593.37987,157.27651 593.37014,157.25475 593.375,157.25 C 593.37975,157.24514 593.40151,157.25487 593.40625,157.25 C 594.03275,156.63512 594.57673,155.935 595.03125,155.15625 C 596.22302,153.11433 596.62068,150.76029 596.25,148.5 L 596.25,99.625 L 616.25,99.625 C 619.85636,99.676003 623.21318,97.771225 625.03125,94.65625 C 626.84932,91.541271 626.84931,87.708726 625.03125,84.59375 C 623.21319,81.478778 619.85636,79.573997 616.25,79.625 L 596.25,79.625 L 596.25,59.625 C 596.29235,56.918635 595.22642,54.320173 593.3125,52.40625 C 591.39856,50.492326 588.80012,49.426401 586.09375,49.46875 z M 535.75,99.625 L 576.25,99.625 L 576.25,140.125 L 535.75,140.125 L 535.75,99.625 z "
         style="fill:#ffffff;fill-opacity:1;fill-rule:evenodd;stroke:none;stroke-width:20;stroke-linecap:round;stroke-linejoin:round;stroke-miterlimit:4;stroke-dasharray:none;stroke-opacity:1" />
    </g>
    <g
       id="g2582">
      <text
         xml:space="preserve"
         style="font-size:12px;font-style:normal;font-weight:normal;line-height:125%;fill:#000000;fill-opacity:1;stroke:none;stroke-width:1px;stroke-linecap:butt;stroke-linejoin:miter;stroke-opacity:1;font-family:Bitstream Vera Sans"
         x="132"
         y="584.73041"
         id="text12354"
         sodipodi:linespacing="125%"><tspan
           sodipodi:role="line"
           id="tspan12356"
           x="132"
           y="584.73041"
           style="font-size:60px;font-style:normal;font-variant:normal;font-weight:normal;font-stretch:normal;text-align:start;line-height:125%;writing-mode:lr-tb;text-anchor:start;fill:#ffffff;font-family:DejaVu Sans">Pixelframe</tspan></text>
      <g
         transform="matrix(0.2522124,0,0,0.2522124,35.283186,492.28192)"
         id="g2545">
        <rect
           inkscape:export-ydpi="9.9557524"
           inkscape:export-xdpi="9.9557524"
           inkscape:export-filename="/home/nikhil/workspace/pixelframe/images/logo_new.png"
           y="169.86221"
           x="103"
           height="216"
           width="216"
           id="rect2547"
           style="fill:#aad400;fill-opacity:1;fill-rule:nonzero;stroke:#ffffff;stroke-width:10;stroke-linecap:round;stroke-linejoin:round;stroke-miterlimit:4;stroke-dasharray:none;stroke-dashoffset:0;stroke-opacity:1" />
        <path
           inkscape:export-ydpi="9.9557524"
           inkscape:export-xdpi="9.9557524"
           inkscape:export-filename="/home/nikhil/workspace/pixelframe/images/logo_new.png"
           id="path2549"
           d="M 271.34375,165.21875 C 265.82085,165.30492 261.41358,169.8521 261.5,175.375 L 261.5,207.375 L 152.34375,207.375 C 151.68877,207.25201 151.02034,207.20816 150.34375,207.21875 C 147.59048,207.26171 145.12399,208.42154 143.34375,210.25 C 143.11527,210.48467 142.89218,210.71269 142.6875,210.96875 C 142.67844,210.98008 142.66526,210.98863 142.65625,211 C 142.46198,211.23461 142.29859,211.49613 142.125,211.75 C 141.99087,211.94616 141.83966,212.13658 141.71875,212.34375 C 140.52699,214.38567 140.12932,216.73971 140.5,219 L 140.5,328.375 L 108.5,328.375 C 104.89364,328.324 101.53682,330.22877 99.71875,333.34375 C 97.900686,336.45871 97.900686,340.29128 99.71875,343.40625 C 101.53682,346.52124 104.89364,348.426 108.5,348.375 L 140.5,348.375 L 140.5,380.375 C 140.449,383.98136 142.35377,387.33818 145.46875,389.15625 C 148.58373,390.97432 152.41628,390.97431 155.53125,389.15625 C 158.64622,387.33819 160.551,383.98136 160.5,380.375 L 160.5,348.375 L 269.875,348.375 C 272.13529,348.74568 274.48934,348.34802 276.53125,347.15625 C 277.31,346.70174 278.01012,346.15774 278.625,345.53125 C 278.62987,345.52651 278.62014,345.50475 278.625,345.5 C 278.62975,345.49514 278.65151,345.50487 278.65625,345.5 C 279.28275,344.88512 279.82673,344.185 280.28125,343.40625 C 281.47302,341.36434 281.87068,339.01029 281.5,336.75 L 281.5,227.375 L 313.5,227.375 C 317.10636,227.426 320.46318,225.52123 322.28125,222.40625 C 324.09932,219.29127 324.09931,215.45872 322.28125,212.34375 C 320.46319,209.22878 317.10636,207.324 313.5,207.375 L 281.5,207.375 L 281.5,175.375 C 281.54235,172.66863 280.47642,170.07017 278.5625,168.15625 C 276.64859,166.24234 274.05012,165.1764 271.34375,165.21875 z M 160.5,227.375 L 261.5,227.375 L 261.5,328.375 L 160.5,328.375 L 160.5,227.375 z "
           style="fill:#ffffff;fill-opacity:1;fill-rule:evenodd;stroke:none;stroke-width:20;stroke-linecap:round;stroke-linejoin:round;stroke-miterlimit:4;stroke-dasharray:none;stroke-opacity:1" />
      </g>
    </g>
    <g
       id="g2595">
      <g
         transform="translate(0,-0.6352819)"
         id="g2589">
        <text
           xml:space="preserve"
           style="font-size:12px;font-style:normal;font-weight:normal;line-height:125%;fill:#000000;fill-opacity:1;stroke:none;stroke-width:1px;stroke-linecap:butt;stroke-linejoin:miter;stroke-opacity:1;font-family:Bitstream Vera Sans"
           x="133"
           y="689.36218"
           id="text2192"
           sodipodi:linespacing="125%"><tspan
             sodipodi:role="line"
             id="tspan2194"
             x="133"
             y="689.36218"
             style="font-size:60px;font-style:normal;font-variant:normal;font-weight:normal;font-stretch:normal;text-align:start;line-height:125%;writing-mode:lr-tb;text-anchor:start;fill:#ffffff;font-family:DejaVu Sans">Pixelframe</tspan></text>
        <path
           style="font-size:12px;font-style:normal;font-weight:normal;line-height:125%;opacity:0.80198017;fill:#666666;fill-opacity:1;stroke:none;stroke-width:1px;stroke-linecap:butt;stroke-linejoin:miter;stroke-opacity:1;font-family:Bitstream Vera Sans"
           d="M 138.875,678.375 L 138.875,689.375 L 144.8125,689.375 L 144.8125,678.375 L 138.875,678.375 z M 173.5625,678.375 L 173.5625,689.375 L 178.9375,689.375 L 178.9375,678.375 L 173.5625,678.375 z M 194.40625,678.375 L 186.25,689.375 L 192.625,689.375 L 200.75,678.375 L 194.40625,678.375 z M 203.5625,678.375 L 211.71875,689.375 L 218.0625,689.375 L 209.90625,678.375 L 203.5625,678.375 z M 222.09375,678.375 C 222.79067,681.23889 224.09472,683.68848 226.0625,685.65625 C 229.1289,688.70313 233.29686,690.21875 238.53125,690.21875 C 240.62107,690.21875 242.68748,689.99219 244.71875,689.5625 C 246.74997,689.13281 248.72263,688.50781 250.65625,687.6875 L 250.65625,682.59375 C 248.74216,683.60938 246.79685,684.36719 244.84375,684.875 C 242.91013,685.38282 240.91404,685.65625 238.84375,685.65625 C 235.26951,685.65625 232.48045,684.6836 230.46875,682.75 C 229.29544,681.59971 228.43858,680.13502 227.875,678.375 L 222.09375,678.375 z M 260.75,678.375 L 260.75,689.375 L 266.15625,689.375 L 266.15625,678.375 L 260.75,678.375 z M 278.28125,678.375 L 278.28125,689.375 L 283.6875,689.375 L 283.6875,678.375 L 278.28125,678.375 z M 298.28125,678.375 L 298.28125,689.375 L 303.71875,689.375 L 303.71875,678.375 L 298.28125,678.375 z M 321.21875,678.375 C 321.17445,678.83757 321.1875,679.31723 321.1875,679.8125 C 321.1875,682.97657 322.15234,685.51172 324.125,687.40625 C 326.11718,689.28125 328.79686,690.21875 332.15625,690.21875 C 334.81248,690.21875 337.07029,689.75 338.90625,688.8125 C 340.74216,687.85547 342.26951,686.36719 343.5,684.375 L 343.5,689.375 L 348.875,689.375 L 348.875,678.375 L 342.9375,678.375 C 342.48794,679.96538 341.78026,681.36036 340.78125,682.53125 C 338.98435,684.64063 336.58201,685.6875 333.59375,685.6875 C 331.42577,685.6875 329.70702,685.14454 328.4375,684.03125 C 327.18749,682.89844 326.56249,681.38282 326.5625,679.46875 C 326.5625,679.08774 326.58275,678.72063 326.625,678.375 L 321.21875,678.375 z M 359.8125,678.375 L 359.8125,689.375 L 365.25,689.375 L 365.25,678.375 L 359.8125,678.375 z M 381.0625,678.375 L 381.0625,689.375 L 386.46875,689.375 L 386.46875,678.375 L 381.0625,678.375 z M 402.3125,678.375 L 402.3125,689.375 L 407.71875,689.375 L 407.71875,678.375 L 402.3125,678.375 z M 416.75,678.375 C 417.44692,681.23889 418.75097,683.68848 420.71875,685.65625 C 423.78515,688.70313 427.95311,690.21875 433.1875,690.21875 C 435.27732,690.21875 437.31248,689.99219 439.34375,689.5625 C 441.37497,689.13281 443.37888,688.50781 445.3125,687.6875 L 445.3125,682.59375 C 443.39841,683.60938 441.4531,684.36719 439.5,684.875 C 437.56638,685.38282 435.57029,685.65625 433.5,685.65625 C 429.92576,685.65625 427.1367,684.6836 425.125,682.75 C 423.95009,681.59814 423.06351,680.13825 422.5,678.375 L 416.75,678.375 z "
           id="text9362" />
        <path
           style="font-size:12px;font-style:normal;font-weight:normal;line-height:125%;opacity:0.6831683;fill:#999999;fill-opacity:1;stroke:none;stroke-width:1px;stroke-linecap:butt;stroke-linejoin:miter;stroke-opacity:1;font-family:Bitstream Vera Sans"
           d="M 138.875,664.375 L 138.875,678.375 L 144.8125,678.375 L 144.8125,671.78125 L 152.25,671.78125 C 157.15232,671.78127 160.84372,670.6758 163.34375,668.46875 C 164.6035,667.36525 165.55762,666.00586 166.1875,664.375 L 159,664.375 C 158.87768,664.512 158.75932,664.65391 158.625,664.78125 C 157.12107,666.20705 155.00388,666.90627 152.25,666.90625 L 144.8125,666.90625 L 144.8125,664.375 L 138.875,664.375 z M 173.5625,664.375 L 173.5625,678.375 L 178.9375,678.375 L 178.9375,664.375 L 173.5625,664.375 z M 193.1875,664.375 L 199,672.1875 L 194.40625,678.375 L 200.75,678.375 L 202.15625,676.46875 L 203.5625,678.375 L 209.90625,678.375 L 205.59375,672.53125 L 211.65625,664.375 L 205.28125,664.375 L 202.40625,668.25 L 199.5,664.375 L 193.1875,664.375 z M 223.25,664.375 C 222.08159,666.88981 221.5,669.86647 221.5,673.28125 C 221.5,675.11142 221.68565,676.80956 222.0625,678.375 L 227.84375,678.375 C 227.45098,677.14767 227.22115,675.7724 227.125,674.25 L 251.90625,674.25 L 251.90625,671.59375 C 251.90623,668.85536 251.49838,666.46838 250.6875,664.375 L 245.0625,664.375 C 245.99623,665.9237 246.5017,667.80163 246.53125,670.03125 L 227.3125,670.0625 C 227.51354,667.79359 228.13165,665.89429 229.15625,664.375 L 223.25,664.375 z M 260.75,664.375 L 260.75,678.375 L 266.15625,678.375 L 266.15625,664.375 L 260.75,664.375 z M 278.28125,664.375 L 278.28125,678.375 L 283.6875,678.375 L 283.6875,664.375 L 278.28125,664.375 z M 298.28125,664.375 L 298.28125,678.375 L 303.71875,678.375 L 303.71875,672.0625 C 303.71874,668.83587 304.30566,666.28748 305.53125,664.375 L 298.28125,664.375 z M 342.65625,664.375 C 343.20729,665.43207 343.49998,666.68747 343.5,668.125 L 343.5,668.65625 L 335.9375,668.65625 C 331.03514,668.65627 327.35546,669.59377 324.875,671.46875 C 322.74439,673.09208 321.53521,675.39137 321.25,678.375 L 326.625,678.375 C 326.85328,676.54661 327.68264,675.21183 329.09375,674.375 C 330.77342,673.37892 333.76952,672.87502 338.125,672.875 L 343.5,672.875 L 343.5,674.0625 C 343.49999,675.64454 343.30402,677.07334 342.9375,678.375 L 348.875,678.375 L 348.875,670.65625 C 348.87499,668.27427 348.59443,666.18074 348.0625,664.375 L 342.65625,664.375 z M 359.8125,664.375 L 359.8125,678.375 L 365.25,678.375 L 365.25,670.8125 C 365.24999,668.2202 365.76889,666.08673 366.84375,664.375 L 359.8125,664.375 z M 380.25,664.375 C 380.78081,665.76825 381.06248,667.53395 381.0625,669.71875 L 381.0625,678.375 L 386.46875,678.375 L 386.46875,670.8125 C 386.46872,668.21566 387.02823,666.08609 388.09375,664.375 L 380.25,664.375 z M 401.5,664.375 C 402.033,665.77468 402.31247,667.54295 402.3125,669.71875 L 402.3125,678.375 L 407.71875,678.375 L 407.71875,669.5625 C 407.71873,667.63879 407.53992,665.91291 407.1875,664.375 L 401.5,664.375 z M 417.90625,664.375 C 416.73784,666.88981 416.15625,669.86647 416.15625,673.28125 C 416.15625,675.11142 416.3419,676.80956 416.71875,678.375 L 422.5,678.375 C 422.10723,677.14767 421.8774,675.7724 421.78125,674.25 L 446.5625,674.25 L 446.5625,671.59375 C 446.56248,668.85536 446.15463,666.46838 445.34375,664.375 L 439.71875,664.375 C 440.65248,665.9237 441.15795,667.80163 441.1875,670.03125 L 421.96875,670.0625 C 422.16972,667.7943 422.75723,665.89405 423.78125,664.375 L 417.90625,664.375 z "
           id="text9384" />
      </g>
      <g
         id="g2576"
         transform="matrix(0.2522124,0,0,0.2522124,35.283186,596.28192)">
        <rect
           style="fill:#aad400;fill-opacity:1;fill-rule:nonzero;stroke:#ffffff;stroke-width:10;stroke-linecap:round;stroke-linejoin:round;stroke-miterlimit:4;stroke-dasharray:none;stroke-dashoffset:0;stroke-opacity:1"
           id="rect2578"
           width="216"
           height="216"
           x="103"
           y="169.86221"
           inkscape:export-filename="/home/nikhil/workspace/pixelframe/images/logo_new.png"
           inkscape:export-xdpi="9.9557524"
           inkscape:export-ydpi="9.9557524" />
        <path
           style="fill:#ffffff;fill-opacity:1;fill-rule:evenodd;stroke:none;stroke-width:20;stroke-linecap:round;stroke-linejoin:round;stroke-miterlimit:4;stroke-dasharray:none;stroke-opacity:1"
           d="M 271.34375,165.21875 C 265.82085,165.30492 261.41358,169.8521 261.5,175.375 L 261.5,207.375 L 152.34375,207.375 C 151.68877,207.25201 151.02034,207.20816 150.34375,207.21875 C 147.59048,207.26171 145.12399,208.42154 143.34375,210.25 C 143.11527,210.48467 142.89218,210.71269 142.6875,210.96875 C 142.67844,210.98008 142.66526,210.98863 142.65625,211 C 142.46198,211.23461 142.29859,211.49613 142.125,211.75 C 141.99087,211.94616 141.83966,212.13658 141.71875,212.34375 C 140.52699,214.38567 140.12932,216.73971 140.5,219 L 140.5,328.375 L 108.5,328.375 C 104.89364,328.324 101.53682,330.22877 99.71875,333.34375 C 97.900686,336.45871 97.900686,340.29128 99.71875,343.40625 C 101.53682,346.52124 104.89364,348.426 108.5,348.375 L 140.5,348.375 L 140.5,380.375 C 140.449,383.98136 142.35377,387.33818 145.46875,389.15625 C 148.58373,390.97432 152.41628,390.97431 155.53125,389.15625 C 158.64622,387.33819 160.551,383.98136 160.5,380.375 L 160.5,348.375 L 269.875,348.375 C 272.13529,348.74568 274.48934,348.34802 276.53125,347.15625 C 277.31,346.70174 278.01012,346.15774 278.625,345.53125 C 278.62987,345.52651 278.62014,345.50475 278.625,345.5 C 278.62975,345.49514 278.65151,345.50487 278.65625,345.5 C 279.28275,344.88512 279.82673,344.185 280.28125,343.40625 C 281.47302,341.36434 281.87068,339.01029 281.5,336.75 L 281.5,227.375 L 313.5,227.375 C 317.10636,227.426 320.46318,225.52123 322.28125,222.40625 C 324.09932,219.29127 324.09931,215.45872 322.28125,212.34375 C 320.46319,209.22878 317.10636,207.324 313.5,207.375 L 281.5,207.375 L 281.5,175.375 C 281.54235,172.66863 280.47642,170.07017 278.5625,168.15625 C 276.64859,166.24234 274.05012,165.1764 271.34375,165.21875 z M 160.5,227.375 L 261.5,227.375 L 261.5,328.375 L 160.5,328.375 L 160.5,227.375 z "
           id="path2580"
           inkscape:export-filename="/home/nikhil/workspace/pixelframe/images/logo_new.png"
           inkscape:export-xdpi="9.9557524"
           inkscape:export-ydpi="9.9557524" />
      </g>
    </g>
    <g
       id="g2679">
      <text
         sodipodi:linespacing="125%"
         id="text15417"
         y="788.01447"
         x="104.2627"
         style="font-size:6px;font-style:normal;font-weight:normal;line-height:125%;fill:#000000;fill-opacity:1;stroke:none;stroke-width:1px;stroke-linecap:butt;stroke-linejoin:miter;stroke-opacity:1;font-family:Bitstream Vera Sans"
         xml:space="preserve"><tspan
           style="font-size:30px;font-style:normal;font-variant:normal;font-weight:normal;font-stretch:normal;text-align:start;line-height:125%;writing-mode:lr-tb;text-anchor:start;fill:#ffffff;font-family:DejaVu Sans"
           y="788.01447"
           x="104.2627"
           id="tspan15419"
           sodipodi:role="line">Pixelframe</tspan></text>
      <g
         transform="matrix(0.2215888,0,0,0.2215888,-41.243223,750.26886)"
         id="g2616">
        <rect
           style="fill:#aad400;fill-opacity:1;fill-rule:nonzero;stroke:#ffffff;stroke-width:11.86440659;stroke-linecap:round;stroke-linejoin:round;stroke-miterlimit:4;stroke-dasharray:none;stroke-dashoffset:0;stroke-opacity:1"
           id="rect2618"
           width="128.13559"
           height="128.13559"
           x="491.93219"
           y="55.794403" />
        <path
           id="path2620"
           d="M 586.09375,49.46875 C 580.57085,49.554923 576.16358,54.102104 576.25,59.625 L 576.25,79.625 L 527.59375,79.625 C 526.93877,79.50201 526.27034,79.458163 525.59375,79.46875 C 522.84048,79.511709 520.37399,80.671539 518.59375,82.5 C 518.36527,82.734673 518.14218,82.962692 517.9375,83.21875 C 517.92844,83.230083 517.91526,83.238626 517.90625,83.25 C 517.71198,83.48461 517.54859,83.746133 517.375,84 C 517.24087,84.196158 517.08966,84.386584 516.96875,84.59375 C 515.77698,86.635668 515.37932,88.989713 515.75,91.25 L 515.75,140.125 L 495.75,140.125 C 492.14364,140.074 488.78682,141.97877 486.96875,145.09375 C 485.15068,148.20873 485.15069,152.04128 486.96875,155.15625 C 488.78681,158.27122 492.14364,160.176 495.75,160.125 L 515.75,160.125 L 515.75,180.125 C 515.699,183.73136 517.60377,187.08818 520.71875,188.90625 C 523.83371,190.72431 527.66628,190.72431 530.78125,188.90625 C 533.89624,187.08818 535.801,183.73136 535.75,180.125 L 535.75,160.125 L 584.625,160.125 C 586.88529,160.49568 589.23934,160.09802 591.28125,158.90625 C 592.06,158.45173 592.76012,157.90775 593.375,157.28125 C 593.37987,157.27651 593.37014,157.25475 593.375,157.25 C 593.37975,157.24514 593.40151,157.25487 593.40625,157.25 C 594.03275,156.63512 594.57673,155.935 595.03125,155.15625 C 596.22302,153.11433 596.62068,150.76029 596.25,148.5 L 596.25,99.625 L 616.25,99.625 C 619.85636,99.676003 623.21318,97.771225 625.03125,94.65625 C 626.84932,91.541271 626.84931,87.708726 625.03125,84.59375 C 623.21319,81.478778 619.85636,79.573997 616.25,79.625 L 596.25,79.625 L 596.25,59.625 C 596.29235,56.918635 595.22642,54.320173 593.3125,52.40625 C 591.39856,50.492326 588.80012,49.426401 586.09375,49.46875 z M 535.75,99.625 L 576.25,99.625 L 576.25,140.125 L 535.75,140.125 L 535.75,99.625 z "
           style="fill:#ffffff;fill-opacity:1;fill-rule:evenodd;stroke:none;stroke-width:20;stroke-linecap:round;stroke-linejoin:round;stroke-miterlimit:4;stroke-dasharray:none;stroke-opacity:1" />
        <path
           style="fill:#ffffff;fill-opacity:1;fill-rule:evenodd;stroke:none;stroke-width:20;stroke-linecap:round;stroke-linejoin:round;stroke-miterlimit:4;stroke-dasharray:none;stroke-opacity:1"
           d="M 586.09375,49.46875 C 580.57085,49.554923 576.16358,54.102104 576.25,59.625 L 576.25,79.625 L 527.59375,79.625 C 526.93877,79.50201 526.27034,79.458163 525.59375,79.46875 C 522.84048,79.511709 520.37399,80.671539 518.59375,82.5 C 518.36527,82.734673 518.14218,82.962692 517.9375,83.21875 C 517.92844,83.230083 517.91526,83.238626 517.90625,83.25 C 517.71198,83.48461 517.54859,83.746133 517.375,84 C 517.24087,84.196158 517.08966,84.386584 516.96875,84.59375 C 515.77698,86.635668 515.37932,88.989713 515.75,91.25 L 515.75,140.125 L 495.75,140.125 C 492.14364,140.074 488.78682,141.97877 486.96875,145.09375 C 485.15068,148.20873 485.15069,152.04128 486.96875,155.15625 C 488.78681,158.27122 492.14364,160.176 495.75,160.125 L 515.75,160.125 L 515.75,180.125 C 515.699,183.73136 517.60377,187.08818 520.71875,188.90625 C 523.83371,190.72431 527.66628,190.72431 530.78125,188.90625 C 533.89624,187.08818 535.801,183.73136 535.75,180.125 L 535.75,160.125 L 584.625,160.125 C 586.88529,160.49568 589.23934,160.09802 591.28125,158.90625 C 592.06,158.45173 592.76012,157.90775 593.375,157.28125 C 593.37987,157.27651 593.37014,157.25475 593.375,157.25 C 593.37975,157.24514 593.40151,157.25487 593.40625,157.25 C 594.03275,156.63512 594.57673,155.935 595.03125,155.15625 C 596.22302,153.11433 596.62068,150.76029 596.25,148.5 L 596.25,99.625 L 616.25,99.625 C 619.85636,99.676003 623.21318,97.771225 625.03125,94.65625 C 626.84932,91.541271 626.84931,87.708726 625.03125,84.59375 C 623.21319,81.478778 619.85636,79.573997 616.25,79.625 L 596.25,79.625 L 596.25,59.625 C 596.29235,56.918635 595.22642,54.320173 593.3125,52.40625 C 591.39856,50.492326 588.80012,49.426401 586.09375,49.46875 z M 535.75,99.625 L 576.25,99.625 L 576.25,140.125 L 535.75,140.125 L 535.75,99.625 z "
           id="path2622" />
      </g>
    </g>
    <g
       id="g2687">
      <g
         transform="translate(1.5,-2.8494354)"
         id="g2637">
        <text
           sodipodi:linespacing="125%"
           id="text15492"
           y="850.86218"
           x="102.76611"
           style="font-size:6px;font-style:normal;font-weight:normal;line-height:125%;fill:#000000;fill-opacity:1;stroke:none;stroke-width:1px;stroke-linecap:butt;stroke-linejoin:miter;stroke-opacity:1;font-family:Bitstream Vera Sans"
           xml:space="preserve"><tspan
             style="font-size:30px;font-style:normal;font-variant:normal;font-weight:normal;font-stretch:normal;text-align:start;line-height:125%;writing-mode:lr-tb;text-anchor:start;fill:#ffffff;font-family:DejaVu Sans"
             y="850.86218"
             x="102.76611"
             id="tspan15494"
             sodipodi:role="line">Pixelframe</tspan></text>
        <path
           id="path15496"
           d="M 105.70361,845.36861 L 105.70361,850.86861 L 108.67236,850.86861 L 108.67236,845.36861 L 105.70361,845.36861 z M 123.04736,845.36861 L 123.04736,850.86861 L 125.73486,850.86861 L 125.73486,845.36861 L 123.04736,845.36861 z M 133.46924,845.36861 L 129.39111,850.86861 L 132.57861,850.86861 L 136.64111,845.36861 L 133.46924,845.36861 z M 138.04736,845.36861 L 142.12549,850.86861 L 145.29736,850.86861 L 141.21924,845.36861 L 138.04736,845.36861 z M 147.31299,845.36861 C 147.66145,846.80056 148.31347,848.02535 149.29736,849.00923 C 150.83056,850.53267 152.91454,851.29048 155.53174,851.29048 C 156.57665,851.29048 157.60985,851.1772 158.62549,850.96236 C 159.6411,850.74752 160.62743,850.43502 161.59424,850.02486 L 161.59424,847.47798 C 160.63719,847.9858 159.66454,848.3647 158.68799,848.61861 C 157.72118,848.87252 156.72313,849.00923 155.68799,849.00923 C 153.90087,849.00923 152.50634,848.52291 151.50049,847.55611 C 150.91383,846.98096 150.4854,846.24862 150.20361,845.36861 L 147.31299,845.36861 z M 166.64111,845.36861 L 166.64111,850.86861 L 169.34424,850.86861 L 169.34424,845.36861 L 166.64111,845.36861 z M 175.40674,845.36861 L 175.40674,850.86861 L 178.10986,850.86861 L 178.10986,845.36861 L 175.40674,845.36861 z M 185.40674,845.36861 L 185.40674,850.86861 L 188.12549,850.86861 L 188.12549,845.36861 L 185.40674,845.36861 z M 196.87549,845.36861 C 196.85334,845.5999 196.85986,845.83973 196.85986,846.08736 C 196.85986,847.6694 197.34228,848.93697 198.32861,849.88423 C 199.3247,850.82173 200.66454,851.29048 202.34424,851.29048 C 203.67235,851.29048 204.80126,851.05611 205.71924,850.58736 C 206.63719,850.10884 207.40087,849.3647 208.01611,848.36861 L 208.01611,850.86861 L 210.70361,850.86861 L 210.70361,845.36861 L 207.73486,845.36861 C 207.51008,846.1638 207.15624,846.86129 206.65674,847.44673 C 205.75829,848.50142 204.55712,849.02486 203.06299,849.02486 C 201.979,849.02486 201.11962,848.75338 200.48486,848.19673 C 199.85986,847.63033 199.54736,846.87252 199.54736,845.91548 C 199.54736,845.72498 199.55749,845.54143 199.57861,845.36861 L 196.87549,845.36861 z M 216.17236,845.36861 L 216.17236,850.86861 L 218.89111,850.86861 L 218.89111,845.36861 L 216.17236,845.36861 z M 226.79736,845.36861 L 226.79736,850.86861 L 229.50049,850.86861 L 229.50049,845.36861 L 226.79736,845.36861 z M 237.42236,845.36861 L 237.42236,850.86861 L 240.12549,850.86861 L 240.12549,845.36861 L 237.42236,845.36861 z M 244.64111,845.36861 C 244.98957,846.80056 245.6416,848.02535 246.62549,849.00923 C 248.15869,850.53267 250.24267,851.29048 252.85986,851.29048 C 253.90477,851.29048 254.92235,851.1772 255.93799,850.96236 C 256.9536,850.74752 257.95555,850.43502 258.92236,850.02486 L 258.92236,847.47798 C 257.96532,847.9858 256.99266,848.3647 256.01611,848.61861 C 255.0493,848.87252 254.05126,849.00923 253.01611,849.00923 C 251.22899,849.00923 249.83446,848.52291 248.82861,847.55611 C 248.24116,846.98018 247.79787,846.25023 247.51611,845.36861 L 244.64111,845.36861 z "
           style="font-size:12px;font-style:normal;font-weight:normal;line-height:125%;opacity:0.80198017;fill:#666666;fill-opacity:1;stroke:none;stroke-width:1px;stroke-linecap:butt;stroke-linejoin:miter;stroke-opacity:1;font-family:Bitstream Vera Sans" />
        <path
           id="path15498"
           d="M 105.70361,838.36861 L 105.70361,845.36861 L 108.67236,845.36861 L 108.67236,842.07173 L 112.39111,842.07173 C 114.84227,842.07174 116.68797,841.51901 117.93799,840.41548 C 118.56786,839.86373 119.04492,839.18404 119.35986,838.36861 L 115.76611,838.36861 C 115.70495,838.43711 115.64577,838.50806 115.57861,838.57173 C 114.82665,839.28463 113.76805,839.63424 112.39111,839.63423 L 108.67236,839.63423 L 108.67236,838.36861 L 105.70361,838.36861 z M 123.04736,838.36861 L 123.04736,845.36861 L 125.73486,845.36861 L 125.73486,838.36861 L 123.04736,838.36861 z M 132.85986,838.36861 L 135.76611,842.27486 L 133.46924,845.36861 L 136.64111,845.36861 L 137.34424,844.41548 L 138.04736,845.36861 L 141.21924,845.36861 L 139.06299,842.44673 L 142.09424,838.36861 L 138.90674,838.36861 L 137.46924,840.30611 L 136.01611,838.36861 L 132.85986,838.36861 z M 147.89111,838.36861 C 147.30691,839.62602 147.01611,841.11434 147.01611,842.82173 C 147.01611,843.73682 147.10894,844.58589 147.29736,845.36861 L 150.18799,845.36861 C 149.9916,844.75494 149.87669,844.06731 149.82861,843.30611 L 162.21924,843.30611 L 162.21924,841.97798 C 162.21923,840.60879 162.0153,839.4153 161.60986,838.36861 L 158.79736,838.36861 C 159.26423,839.14296 159.51696,840.08192 159.53174,841.19673 L 149.92236,841.21236 C 150.02288,840.0779 150.33194,839.12825 150.84424,838.36861 L 147.89111,838.36861 z M 166.64111,838.36861 L 166.64111,845.36861 L 169.34424,845.36861 L 169.34424,838.36861 L 166.64111,838.36861 z M 175.40674,838.36861 L 175.40674,845.36861 L 178.10986,845.36861 L 178.10986,838.36861 L 175.40674,838.36861 z M 185.40674,838.36861 L 185.40674,845.36861 L 188.12549,845.36861 L 188.12549,842.21236 C 188.12548,840.59904 188.41894,839.32485 189.03174,838.36861 L 185.40674,838.36861 z M 207.59424,838.36861 C 207.86976,838.89714 208.0161,839.52484 208.01611,840.24361 L 208.01611,840.50923 L 204.23486,840.50923 C 201.78368,840.50924 199.94384,840.97799 198.70361,841.91548 C 197.63831,842.72715 197.03372,843.8768 196.89111,845.36861 L 199.57861,845.36861 C 199.69275,844.45441 200.10743,843.78702 200.81299,843.36861 C 201.65282,842.87057 203.15087,842.61862 205.32861,842.61861 L 208.01611,842.61861 L 208.01611,843.21236 C 208.01611,844.00338 207.91812,844.71778 207.73486,845.36861 L 210.70361,845.36861 L 210.70361,841.50923 C 210.70361,840.31824 210.56333,839.27148 210.29736,838.36861 L 207.59424,838.36861 z M 216.17236,838.36861 L 216.17236,845.36861 L 218.89111,845.36861 L 218.89111,841.58736 C 218.89111,840.29121 219.15056,839.22447 219.68799,838.36861 L 216.17236,838.36861 z M 226.39111,838.36861 C 226.65652,839.06524 226.79735,839.94808 226.79736,841.04048 L 226.79736,845.36861 L 229.50049,845.36861 L 229.50049,841.58736 C 229.50047,840.28894 229.78023,839.22415 230.31299,838.36861 L 226.39111,838.36861 z M 237.01611,838.36861 C 237.28261,839.06845 237.42235,839.95258 237.42236,841.04048 L 237.42236,845.36861 L 240.12549,845.36861 L 240.12549,840.96236 C 240.12548,840.0005 240.03607,839.13756 239.85986,838.36861 L 237.01611,838.36861 z M 245.21924,838.36861 C 244.63503,839.62602 244.34424,841.11434 244.34424,842.82173 C 244.34424,843.73682 244.43706,844.58589 244.62549,845.36861 L 247.51611,845.36861 C 247.31973,844.75494 247.20481,844.06731 247.15674,843.30611 L 259.54736,843.30611 L 259.54736,841.97798 C 259.54735,840.60879 259.34343,839.4153 258.93799,838.36861 L 256.12549,838.36861 C 256.59235,839.14296 256.84509,840.08192 256.85986,841.19673 L 247.25049,841.21236 C 247.35097,840.07826 247.64473,839.12813 248.15674,838.36861 L 245.21924,838.36861 z "
           style="font-size:12px;font-style:normal;font-weight:normal;line-height:125%;opacity:0.6831683;fill:#999999;fill-opacity:1;stroke:none;stroke-width:1px;stroke-linecap:butt;stroke-linejoin:miter;stroke-opacity:1;font-family:Bitstream Vera Sans" />
      </g>
      <g
         id="g2671"
         transform="matrix(0.2215888,0,0,0.2215888,-41.243223,810.26886)">
        <rect
           y="55.794403"
           x="491.93219"
           height="128.13559"
           width="128.13559"
           id="rect2673"
           style="fill:#aad400;fill-opacity:1;fill-rule:nonzero;stroke:#ffffff;stroke-width:11.86440659;stroke-linecap:round;stroke-linejoin:round;stroke-miterlimit:4;stroke-dasharray:none;stroke-dashoffset:0;stroke-opacity:1" />
        <path
           style="fill:#ffffff;fill-opacity:1;fill-rule:evenodd;stroke:none;stroke-width:20;stroke-linecap:round;stroke-linejoin:round;stroke-miterlimit:4;stroke-dasharray:none;stroke-opacity:1"
           d="M 586.09375,49.46875 C 580.57085,49.554923 576.16358,54.102104 576.25,59.625 L 576.25,79.625 L 527.59375,79.625 C 526.93877,79.50201 526.27034,79.458163 525.59375,79.46875 C 522.84048,79.511709 520.37399,80.671539 518.59375,82.5 C 518.36527,82.734673 518.14218,82.962692 517.9375,83.21875 C 517.92844,83.230083 517.91526,83.238626 517.90625,83.25 C 517.71198,83.48461 517.54859,83.746133 517.375,84 C 517.24087,84.196158 517.08966,84.386584 516.96875,84.59375 C 515.77698,86.635668 515.37932,88.989713 515.75,91.25 L 515.75,140.125 L 495.75,140.125 C 492.14364,140.074 488.78682,141.97877 486.96875,145.09375 C 485.15068,148.20873 485.15069,152.04128 486.96875,155.15625 C 488.78681,158.27122 492.14364,160.176 495.75,160.125 L 515.75,160.125 L 515.75,180.125 C 515.699,183.73136 517.60377,187.08818 520.71875,188.90625 C 523.83371,190.72431 527.66628,190.72431 530.78125,188.90625 C 533.89624,187.08818 535.801,183.73136 535.75,180.125 L 535.75,160.125 L 584.625,160.125 C 586.88529,160.49568 589.23934,160.09802 591.28125,158.90625 C 592.06,158.45173 592.76012,157.90775 593.375,157.28125 C 593.37987,157.27651 593.37014,157.25475 593.375,157.25 C 593.37975,157.24514 593.40151,157.25487 593.40625,157.25 C 594.03275,156.63512 594.57673,155.935 595.03125,155.15625 C 596.22302,153.11433 596.62068,150.76029 596.25,148.5 L 596.25,99.625 L 616.25,99.625 C 619.85636,99.676003 623.21318,97.771225 625.03125,94.65625 C 626.84932,91.541271 626.84931,87.708726 625.03125,84.59375 C 623.21319,81.478778 619.85636,79.573997 616.25,79.625 L 596.25,79.625 L 596.25,59.625 C 596.29235,56.918635 595.22642,54.320173 593.3125,52.40625 C 591.39856,50.492326 588.80012,49.426401 586.09375,49.46875 z M 535.75,99.625 L 576.25,99.625 L 576.25,140.125 L 535.75,140.125 L 535.75,99.625 z "
           id="path2675" />
        <path
           id="path2677"
           d="M 586.09375,49.46875 C 580.57085,49.554923 576.16358,54.102104 576.25,59.625 L 576.25,79.625 L 527.59375,79.625 C 526.93877,79.50201 526.27034,79.458163 525.59375,79.46875 C 522.84048,79.511709 520.37399,80.671539 518.59375,82.5 C 518.36527,82.734673 518.14218,82.962692 517.9375,83.21875 C 517.92844,83.230083 517.91526,83.238626 517.90625,83.25 C 517.71198,83.48461 517.54859,83.746133 517.375,84 C 517.24087,84.196158 517.08966,84.386584 516.96875,84.59375 C 515.77698,86.635668 515.37932,88.989713 515.75,91.25 L 515.75,140.125 L 495.75,140.125 C 492.14364,140.074 488.78682,141.97877 486.96875,145.09375 C 485.15068,148.20873 485.15069,152.04128 486.96875,155.15625 C 488.78681,158.27122 492.14364,160.176 495.75,160.125 L 515.75,160.125 L 515.75,180.125 C 515.699,183.73136 517.60377,187.08818 520.71875,188.90625 C 523.83371,190.72431 527.66628,190.72431 530.78125,188.90625 C 533.89624,187.08818 535.801,183.73136 535.75,180.125 L 535.75,160.125 L 584.625,160.125 C 586.88529,160.49568 589.23934,160.09802 591.28125,158.90625 C 592.06,158.45173 592.76012,157.90775 593.375,157.28125 C 593.37987,157.27651 593.37014,157.25475 593.375,157.25 C 593.37975,157.24514 593.40151,157.25487 593.40625,157.25 C 594.03275,156.63512 594.57673,155.935 595.03125,155.15625 C 596.22302,153.11433 596.62068,150.76029 596.25,148.5 L 596.25,99.625 L 616.25,99.625 C 619.85636,99.676003 623.21318,97.771225 625.03125,94.65625 C 626.84932,91.541271 626.84931,87.708726 625.03125,84.59375 C 623.21319,81.478778 619.85636,79.573997 616.25,79.625 L 596.25,79.625 L 596.25,59.625 C 596.29235,56.918635 595.22642,54.320173 593.3125,52.40625 C 591.39856,50.492326 588.80012,49.426401 586.09375,49.46875 z M 535.75,99.625 L 576.25,99.625 L 576.25,140.125 L 535.75,140.125 L 535.75,99.625 z "
           style="fill:#ffffff;fill-opacity:1;fill-rule:evenodd;stroke:none;stroke-width:20;stroke-linecap:round;stroke-linejoin:round;stroke-miterlimit:4;stroke-dasharray:none;stroke-opacity:1" />
      </g>
    </g>
  </g>
</svg>
