<?xml version="1.0" encoding="UTF-8" standalone="no"?>
<!-- Created with Inkscape (http://www.inkscape.org/) -->
<svg
   xmlns:dc="http://purl.org/dc/elements/1.1/"
   xmlns:cc="http://web.resource.org/cc/"
   xmlns:rdf="http://www.w3.org/1999/02/22-rdf-syntax-ns#"
   xmlns:svg="http://www.w3.org/2000/svg"
   xmlns="http://www.w3.org/2000/svg"
   xmlns:xlink="http://www.w3.org/1999/xlink"
   xmlns:sodipodi="http://sodipodi.sourceforge.net/DTD/sodipodi-0.dtd"
   xmlns:inkscape="http://www.inkscape.org/namespaces/inkscape"
   width="744.09448819"
   height="1052.3622047"
   id="svg2"
   sodipodi:version="0.32"
   inkscape:version="0.45"
   sodipodi:docbase="/home/nikhil/workspace/pixelframe/images"
   sodipodi:docname="logo_new.svg"
   inkscape:output_extension="org.inkscape.output.svg.inkscape"
   inkscape:export-filename="/home/nikhil/workspace/pixelframe/images/logo_new.png"
   inkscape:export-xdpi="6.1417332"
   inkscape:export-ydpi="6.1417332"
   sodipodi:modified="TRUE">
  <defs
     id="defs4">
    <linearGradient
       id="linearGradient5172">
      <stop
         style="stop-color:#ffffff;stop-opacity:0;"
         offset="0"
         id="stop5174" />
      <stop
         style="stop-color:#000000;stop-opacity:1;"
         offset="1"
         id="stop5176" />
    </linearGradient>
    <linearGradient
       inkscape:collect="always"
       xlink:href="#linearGradient5172"
       id="linearGradient7278"
       gradientUnits="userSpaceOnUse"
       gradientTransform="matrix(1,0,0,1.0348837,0,-27.280066)"
       x1="357"
       y1="622.01825"
       x2="356"
       y2="710.36218" />
  </defs>
  <sodipodi:namedview
     id="base"
     pagecolor="#000000"
     bordercolor="#666666"
     borderopacity="1.0"
     gridtolerance="10000"
     guidetolerance="10"
     objecttolerance="10"
     inkscape:pageopacity="1"
     inkscape:pageshadow="2"
     inkscape:zoom="1"
     inkscape:cx="248.23201"
     inkscape:cy="519.00914"
     inkscape:document-units="px"
     inkscape:current-layer="layer1"
     inkscape:window-width="1280"
     inkscape:window-height="969"
     inkscape:window-x="0"
     inkscape:window-y="30" />
  <metadata
     id="metadata7">
    <rdf:RDF>
      <cc:Work
         rdf:about="">
        <dc:format>image/svg+xml</dc:format>
        <dc:type
           rdf:resource="http://purl.org/dc/dcmitype/StillImage" />
      </cc:Work>
    </rdf:RDF>
  </metadata>
  <g
     inkscape:label="Layer 1"
     inkscape:groupmode="layer"
     id="layer1">
    <g
       id="g8184"
       inkscape:export-filename="/home/nikhil/workspace/pixelframe/images/logo_new.png"
       inkscape:export-xdpi="7.0866151"
       inkscape:export-ydpi="7.0866151"
       transform="translate(-157,-148)">
      <rect
         y="317.86221"
         x="260"
         height="216"
         width="216"
         id="rect5227"
         style="fill:#aad400;fill-opacity:1;fill-rule:nonzero;stroke:#ffffff;stroke-width:10;stroke-linecap:round;stroke-linejoin:round;stroke-miterlimit:4;stroke-dasharray:none;stroke-dashoffset:0;stroke-opacity:1" />
      <g
         style="stroke:#ffffff;stroke-width:20;stroke-linecap:round;stroke-linejoin:round;stroke-miterlimit:4;stroke-dasharray:none;stroke-opacity:1"
         transform="translate(12,-8)"
         id="g6220">
        <g
           id="g4254"
           style="stroke:#ffffff;stroke-width:20;stroke-linecap:round;stroke-linejoin:round;stroke-miterlimit:4;stroke-dasharray:none;stroke-opacity:1"
           transform="translate(159,-62)">
          <path
             id="path3281"
             d="M 136.5,676.36218 L 136.5,435.36218"
             style="fill:none;fill-rule:evenodd;stroke:#ffffff;stroke-width:20;stroke-linecap:round;stroke-linejoin:round;stroke-miterlimit:4;stroke-dasharray:none;stroke-opacity:1" />
          <path
             style="fill:none;fill-rule:evenodd;stroke:#ffffff;stroke-width:20;stroke-linecap:round;stroke-linejoin:round;stroke-miterlimit:4;stroke-dasharray:none;stroke-opacity:1"
             d="M 377.5,435.36218 L 136.5,435.36218"
             id="path4252" />
        </g>
        <g
           transform="matrix(-1,0,0,-1,553,929.7244)"
           style="stroke:#ffffff;stroke-width:20;stroke-linecap:round;stroke-linejoin:round;stroke-miterlimit:4;stroke-dasharray:none;stroke-opacity:1"
           id="g6198">
          <path
             style="fill:none;fill-rule:evenodd;stroke:#ffffff;stroke-width:20;stroke-linecap:round;stroke-linejoin:round;stroke-miterlimit:4;stroke-dasharray:none;stroke-opacity:1"
             d="M 136.5,676.36218 L 136.5,435.36218"
             id="path6200" />
          <path
             id="path6202"
             d="M 377.5,435.36218 L 136.5,435.36218"
             style="fill:none;fill-rule:evenodd;stroke:#ffffff;stroke-width:20;stroke-linecap:round;stroke-linejoin:round;stroke-miterlimit:4;stroke-dasharray:none;stroke-opacity:1" />
        </g>
      </g>
    </g>
    <g
       id="g12371"
       transform="translate(-147,98)">
      <g
         id="g2174"
         inkscape:export-filename="/home/nikhil/workspace/pixelframe/images/logo_new.png"
         inkscape:export-xdpi="7.0866151"
         inkscape:export-ydpi="7.0866151"
         transform="matrix(0.2257218,0,0,0.2257218,141.43438,474.23584)">
        <rect
           y="317.86221"
           x="260"
           height="216"
           width="216"
           id="rect2176"
           style="fill:#aad400;fill-opacity:1;fill-rule:nonzero;stroke:#ffffff;stroke-width:10;stroke-linecap:round;stroke-linejoin:round;stroke-miterlimit:4;stroke-dasharray:none;stroke-dashoffset:0;stroke-opacity:1" />
        <g
           style="stroke:#ffffff;stroke-width:20;stroke-linecap:round;stroke-linejoin:round;stroke-miterlimit:4;stroke-dasharray:none;stroke-opacity:1"
           transform="translate(12,-8)"
           id="g2178">
          <g
             id="g2180"
             style="stroke:#ffffff;stroke-width:20;stroke-linecap:round;stroke-linejoin:round;stroke-miterlimit:4;stroke-dasharray:none;stroke-opacity:1"
             transform="translate(159,-62)">
            <path
               id="path2182"
               d="M 136.5,676.36218 L 136.5,435.36218"
               style="fill:none;fill-rule:evenodd;stroke:#ffffff;stroke-width:20;stroke-linecap:round;stroke-linejoin:round;stroke-miterlimit:4;stroke-dasharray:none;stroke-opacity:1" />
            <path
               style="fill:none;fill-rule:evenodd;stroke:#ffffff;stroke-width:20;stroke-linecap:round;stroke-linejoin:round;stroke-miterlimit:4;stroke-dasharray:none;stroke-opacity:1"
               d="M 377.5,435.36218 L 136.5,435.36218"
               id="path2184" />
          </g>
          <g
             transform="matrix(-1,0,0,-1,553,929.7244)"
             style="stroke:#ffffff;stroke-width:20;stroke-linecap:round;stroke-linejoin:round;stroke-miterlimit:4;stroke-dasharray:none;stroke-opacity:1"
             id="g2186">
            <path
               style="fill:none;fill-rule:evenodd;stroke:#ffffff;stroke-width:20;stroke-linecap:round;stroke-linejoin:round;stroke-miterlimit:4;stroke-dasharray:none;stroke-opacity:1"
               d="M 136.5,676.36218 L 136.5,435.36218"
               id="path2188" />
            <path
               id="path2190"
               d="M 377.5,435.36218 L 136.5,435.36218"
               style="fill:none;fill-rule:evenodd;stroke:#ffffff;stroke-width:20;stroke-linecap:round;stroke-linejoin:round;stroke-miterlimit:4;stroke-dasharray:none;stroke-opacity:1" />
          </g>
        </g>
      </g>
      <text
         sodipodi:linespacing="125%"
         id="text2192"
         y="591.36218"
         x="280"
         style="font-size:12px;font-style:normal;font-weight:normal;line-height:125%;fill:#000000;fill-opacity:1;stroke:none;stroke-width:1px;stroke-linecap:butt;stroke-linejoin:miter;stroke-opacity:1;font-family:Bitstream Vera Sans"
         xml:space="preserve"><tspan
           style="font-size:60px;font-style:normal;font-variant:normal;font-weight:normal;font-stretch:normal;text-align:start;line-height:125%;writing-mode:lr-tb;text-anchor:start;fill:#ffffff;font-family:DejaVu Sans"
           y="591.36218"
           x="280"
           id="tspan2194"
           sodipodi:role="line">Pixelframe</tspan></text>
      <path
         id="text9362"
         d="M 285.875,580.375 L 285.875,591.375 L 291.8125,591.375 L 291.8125,580.375 L 285.875,580.375 z M 320.5625,580.375 L 320.5625,591.375 L 325.9375,591.375 L 325.9375,580.375 L 320.5625,580.375 z M 341.40625,580.375 L 333.25,591.375 L 339.625,591.375 L 347.75,580.375 L 341.40625,580.375 z M 350.5625,580.375 L 358.71875,591.375 L 365.0625,591.375 L 356.90625,580.375 L 350.5625,580.375 z M 369.09375,580.375 C 369.79067,583.23889 371.09472,585.68848 373.0625,587.65625 C 376.1289,590.70313 380.29686,592.21875 385.53125,592.21875 C 387.62107,592.21875 389.68748,591.99219 391.71875,591.5625 C 393.74997,591.13281 395.72263,590.50781 397.65625,589.6875 L 397.65625,584.59375 C 395.74216,585.60938 393.79685,586.36719 391.84375,586.875 C 389.91013,587.38282 387.91404,587.65625 385.84375,587.65625 C 382.26951,587.65625 379.48045,586.6836 377.46875,584.75 C 376.29544,583.59971 375.43858,582.13502 374.875,580.375 L 369.09375,580.375 z M 407.75,580.375 L 407.75,591.375 L 413.15625,591.375 L 413.15625,580.375 L 407.75,580.375 z M 425.28125,580.375 L 425.28125,591.375 L 430.6875,591.375 L 430.6875,580.375 L 425.28125,580.375 z M 445.28125,580.375 L 445.28125,591.375 L 450.71875,591.375 L 450.71875,580.375 L 445.28125,580.375 z M 468.21875,580.375 C 468.17445,580.83757 468.1875,581.31723 468.1875,581.8125 C 468.1875,584.97657 469.15234,587.51172 471.125,589.40625 C 473.11718,591.28125 475.79686,592.21875 479.15625,592.21875 C 481.81248,592.21875 484.07029,591.75 485.90625,590.8125 C 487.74216,589.85547 489.26951,588.36719 490.5,586.375 L 490.5,591.375 L 495.875,591.375 L 495.875,580.375 L 489.9375,580.375 C 489.48794,581.96538 488.78026,583.36036 487.78125,584.53125 C 485.98435,586.64063 483.58201,587.6875 480.59375,587.6875 C 478.42577,587.6875 476.70702,587.14454 475.4375,586.03125 C 474.18749,584.89844 473.56249,583.38282 473.5625,581.46875 C 473.5625,581.08774 473.58275,580.72063 473.625,580.375 L 468.21875,580.375 z M 506.8125,580.375 L 506.8125,591.375 L 512.25,591.375 L 512.25,580.375 L 506.8125,580.375 z M 528.0625,580.375 L 528.0625,591.375 L 533.46875,591.375 L 533.46875,580.375 L 528.0625,580.375 z M 549.3125,580.375 L 549.3125,591.375 L 554.71875,591.375 L 554.71875,580.375 L 549.3125,580.375 z M 563.75,580.375 C 564.44692,583.23889 565.75097,585.68848 567.71875,587.65625 C 570.78515,590.70313 574.95311,592.21875 580.1875,592.21875 C 582.27732,592.21875 584.31248,591.99219 586.34375,591.5625 C 588.37497,591.13281 590.37888,590.50781 592.3125,589.6875 L 592.3125,584.59375 C 590.39841,585.60938 588.4531,586.36719 586.5,586.875 C 584.56638,587.38282 582.57029,587.65625 580.5,587.65625 C 576.92576,587.65625 574.1367,586.6836 572.125,584.75 C 570.95009,583.59814 570.06351,582.13825 569.5,580.375 L 563.75,580.375 z "
         style="font-size:12px;font-style:normal;font-weight:normal;line-height:125%;opacity:0.80198017;fill:#666666;fill-opacity:1;stroke:none;stroke-width:1px;stroke-linecap:butt;stroke-linejoin:miter;stroke-opacity:1;font-family:Bitstream Vera Sans" />
      <path
         id="text9384"
         d="M 285.875,566.375 L 285.875,580.375 L 291.8125,580.375 L 291.8125,573.78125 L 299.25,573.78125 C 304.15232,573.78127 307.84372,572.6758 310.34375,570.46875 C 311.6035,569.36525 312.55762,568.00586 313.1875,566.375 L 306,566.375 C 305.87768,566.512 305.75932,566.65391 305.625,566.78125 C 304.12107,568.20705 302.00388,568.90627 299.25,568.90625 L 291.8125,568.90625 L 291.8125,566.375 L 285.875,566.375 z M 320.5625,566.375 L 320.5625,580.375 L 325.9375,580.375 L 325.9375,566.375 L 320.5625,566.375 z M 340.1875,566.375 L 346,574.1875 L 341.40625,580.375 L 347.75,580.375 L 349.15625,578.46875 L 350.5625,580.375 L 356.90625,580.375 L 352.59375,574.53125 L 358.65625,566.375 L 352.28125,566.375 L 349.40625,570.25 L 346.5,566.375 L 340.1875,566.375 z M 370.25,566.375 C 369.08159,568.88981 368.5,571.86647 368.5,575.28125 C 368.5,577.11142 368.68565,578.80956 369.0625,580.375 L 374.84375,580.375 C 374.45098,579.14767 374.22115,577.7724 374.125,576.25 L 398.90625,576.25 L 398.90625,573.59375 C 398.90623,570.85536 398.49838,568.46838 397.6875,566.375 L 392.0625,566.375 C 392.99623,567.9237 393.5017,569.80163 393.53125,572.03125 L 374.3125,572.0625 C 374.51354,569.79359 375.13165,567.89429 376.15625,566.375 L 370.25,566.375 z M 407.75,566.375 L 407.75,580.375 L 413.15625,580.375 L 413.15625,566.375 L 407.75,566.375 z M 425.28125,566.375 L 425.28125,580.375 L 430.6875,580.375 L 430.6875,566.375 L 425.28125,566.375 z M 445.28125,566.375 L 445.28125,580.375 L 450.71875,580.375 L 450.71875,574.0625 C 450.71874,570.83587 451.30566,568.28748 452.53125,566.375 L 445.28125,566.375 z M 489.65625,566.375 C 490.20729,567.43207 490.49998,568.68747 490.5,570.125 L 490.5,570.65625 L 482.9375,570.65625 C 478.03514,570.65627 474.35546,571.59377 471.875,573.46875 C 469.74439,575.09208 468.53521,577.39137 468.25,580.375 L 473.625,580.375 C 473.85328,578.54661 474.68264,577.21183 476.09375,576.375 C 477.77342,575.37892 480.76952,574.87502 485.125,574.875 L 490.5,574.875 L 490.5,576.0625 C 490.49999,577.64454 490.30402,579.07334 489.9375,580.375 L 495.875,580.375 L 495.875,572.65625 C 495.87499,570.27427 495.59443,568.18074 495.0625,566.375 L 489.65625,566.375 z M 506.8125,566.375 L 506.8125,580.375 L 512.25,580.375 L 512.25,572.8125 C 512.24999,570.2202 512.76889,568.08673 513.84375,566.375 L 506.8125,566.375 z M 527.25,566.375 C 527.78081,567.76825 528.06248,569.53395 528.0625,571.71875 L 528.0625,580.375 L 533.46875,580.375 L 533.46875,572.8125 C 533.46872,570.21566 534.02823,568.08609 535.09375,566.375 L 527.25,566.375 z M 548.5,566.375 C 549.033,567.77468 549.31247,569.54295 549.3125,571.71875 L 549.3125,580.375 L 554.71875,580.375 L 554.71875,571.5625 C 554.71873,569.63879 554.53992,567.91291 554.1875,566.375 L 548.5,566.375 z M 564.90625,566.375 C 563.73784,568.88981 563.15625,571.86647 563.15625,575.28125 C 563.15625,577.11142 563.3419,578.80956 563.71875,580.375 L 569.5,580.375 C 569.10723,579.14767 568.8774,577.7724 568.78125,576.25 L 593.5625,576.25 L 593.5625,573.59375 C 593.56248,570.85536 593.15463,568.46838 592.34375,566.375 L 586.71875,566.375 C 587.65248,567.9237 588.15795,569.80163 588.1875,572.03125 L 568.96875,572.0625 C 569.16972,569.7943 569.75723,567.89405 570.78125,566.375 L 564.90625,566.375 z "
         style="font-size:12px;font-style:normal;font-weight:normal;line-height:125%;opacity:0.6831683;fill:#999999;fill-opacity:1;stroke:none;stroke-width:1px;stroke-linecap:butt;stroke-linejoin:miter;stroke-opacity:1;font-family:Bitstream Vera Sans" />
    </g>
    <g
       id="g12358"
       transform="translate(-150,113)">
      <g
         transform="matrix(0.2257218,0,0,0.2257218,143.43438,353.23584)"
         inkscape:export-ydpi="7.0866151"
         inkscape:export-xdpi="7.0866151"
         inkscape:export-filename="/home/nikhil/workspace/pixelframe/images/logo_new.png"
         id="g12336">
        <rect
           style="fill:#aad400;fill-opacity:1;fill-rule:nonzero;stroke:#ffffff;stroke-width:10;stroke-linecap:round;stroke-linejoin:round;stroke-miterlimit:4;stroke-dasharray:none;stroke-dashoffset:0;stroke-opacity:1"
           id="rect12338"
           width="216"
           height="216"
           x="260"
           y="317.86221" />
        <g
           id="g12340"
           transform="translate(12,-8)"
           style="stroke:#ffffff;stroke-width:20;stroke-linecap:round;stroke-linejoin:round;stroke-miterlimit:4;stroke-dasharray:none;stroke-opacity:1">
          <g
             transform="translate(159,-62)"
             style="stroke:#ffffff;stroke-width:20;stroke-linecap:round;stroke-linejoin:round;stroke-miterlimit:4;stroke-dasharray:none;stroke-opacity:1"
             id="g12342">
            <path
               style="fill:none;fill-rule:evenodd;stroke:#ffffff;stroke-width:20;stroke-linecap:round;stroke-linejoin:round;stroke-miterlimit:4;stroke-dasharray:none;stroke-opacity:1"
               d="M 136.5,676.36218 L 136.5,435.36218"
               id="path12344" />
            <path
               id="path12346"
               d="M 377.5,435.36218 L 136.5,435.36218"
               style="fill:none;fill-rule:evenodd;stroke:#ffffff;stroke-width:20;stroke-linecap:round;stroke-linejoin:round;stroke-miterlimit:4;stroke-dasharray:none;stroke-opacity:1" />
          </g>
          <g
             id="g12348"
             style="stroke:#ffffff;stroke-width:20;stroke-linecap:round;stroke-linejoin:round;stroke-miterlimit:4;stroke-dasharray:none;stroke-opacity:1"
             transform="matrix(-1,0,0,-1,553,929.7244)">
            <path
               id="path12350"
               d="M 136.5,676.36218 L 136.5,435.36218"
               style="fill:none;fill-rule:evenodd;stroke:#ffffff;stroke-width:20;stroke-linecap:round;stroke-linejoin:round;stroke-miterlimit:4;stroke-dasharray:none;stroke-opacity:1" />
            <path
               style="fill:none;fill-rule:evenodd;stroke:#ffffff;stroke-width:20;stroke-linecap:round;stroke-linejoin:round;stroke-miterlimit:4;stroke-dasharray:none;stroke-opacity:1"
               d="M 377.5,435.36218 L 136.5,435.36218"
               id="path12352" />
          </g>
        </g>
      </g>
      <text
         xml:space="preserve"
         style="font-size:12px;font-style:normal;font-weight:normal;line-height:125%;fill:#000000;fill-opacity:1;stroke:none;stroke-width:1px;stroke-linecap:butt;stroke-linejoin:miter;stroke-opacity:1;font-family:Bitstream Vera Sans"
         x="282"
         y="470.36218"
         id="text12354"
         sodipodi:linespacing="125%"><tspan
           sodipodi:role="line"
           id="tspan12356"
           x="282"
           y="470.36218"
           style="font-size:60px;font-style:normal;font-variant:normal;font-weight:normal;font-stretch:normal;text-align:start;line-height:125%;writing-mode:lr-tb;text-anchor:start;fill:#ffffff;font-family:DejaVu Sans">Pixelframe</tspan></text>
    </g>
    <g
       id="g15333"
       transform="matrix(0.5,0,0,0.5,262.5,-29.5689)">
      <rect
         style="fill:#aad400;fill-opacity:1;fill-rule:nonzero;stroke:#ffffff;stroke-width:23.72881317;stroke-linecap:round;stroke-linejoin:round;stroke-miterlimit:4;stroke-dasharray:none;stroke-dashoffset:0;stroke-opacity:1"
         id="rect12388"
         width="256.27118"
         height="256.27118"
         x="458.86441"
         y="170.72661" />
      <g
         transform="translate(20,20)"
         id="g15325">
        <g
           transform="translate(370,-217)"
           style="stroke:#ffffff;stroke-width:40;stroke-linecap:round;stroke-linejoin:round;stroke-miterlimit:4;stroke-dasharray:none;stroke-opacity:1"
           id="g12392">
          <path
             style="fill:none;fill-rule:evenodd;stroke:#ffffff;stroke-width:40;stroke-linecap:round;stroke-linejoin:round;stroke-miterlimit:4;stroke-dasharray:none;stroke-opacity:1"
             d="M 136.5,676.36218 L 136.5,435.36218"
             id="path12394" />
          <path
             id="path12396"
             d="M 377.5,435.36218 L 136.5,435.36218"
             style="fill:none;fill-rule:evenodd;stroke:#ffffff;stroke-width:40;stroke-linecap:round;stroke-linejoin:round;stroke-miterlimit:4;stroke-dasharray:none;stroke-opacity:1" />
        </g>
        <g
           id="g12398"
           style="stroke:#ffffff;stroke-width:40;stroke-linecap:round;stroke-linejoin:round;stroke-miterlimit:4;stroke-dasharray:none;stroke-opacity:1"
           transform="matrix(-1,0,0,-1,764,774.7244)">
          <path
             id="path12400"
             d="M 136.5,676.36218 L 136.5,435.36218"
             style="fill:none;fill-rule:evenodd;stroke:#ffffff;stroke-width:40;stroke-linecap:round;stroke-linejoin:round;stroke-miterlimit:4;stroke-dasharray:none;stroke-opacity:1" />
          <path
             style="fill:none;fill-rule:evenodd;stroke:#ffffff;stroke-width:40;stroke-linecap:round;stroke-linejoin:round;stroke-miterlimit:4;stroke-dasharray:none;stroke-opacity:1"
             d="M 377.5,435.36218 L 136.5,435.36218"
             id="path12402" />
        </g>
      </g>
    </g>
    <g
       transform="matrix(0.25,0,0,0.25,399.25,219.14665)"
       id="g15343">
      <rect
         y="170.72661"
         x="458.86441"
         height="256.27118"
         width="256.27118"
         id="rect15345"
         style="fill:#aad400;fill-opacity:1;fill-rule:nonzero;stroke:#ffffff;stroke-width:23.72881317;stroke-linecap:round;stroke-linejoin:round;stroke-miterlimit:4;stroke-dasharray:none;stroke-dashoffset:0;stroke-opacity:1" />
      <g
         id="g15347"
         transform="translate(20,20)">
        <g
           id="g15349"
           style="stroke:#ffffff;stroke-width:40;stroke-linecap:round;stroke-linejoin:round;stroke-miterlimit:4;stroke-dasharray:none;stroke-opacity:1"
           transform="translate(370,-217)">
          <path
             id="path15351"
             d="M 136.5,676.36218 L 136.5,435.36218"
             style="fill:none;fill-rule:evenodd;stroke:#ffffff;stroke-width:40;stroke-linecap:round;stroke-linejoin:round;stroke-miterlimit:4;stroke-dasharray:none;stroke-opacity:1" />
          <path
             style="fill:none;fill-rule:evenodd;stroke:#ffffff;stroke-width:40;stroke-linecap:round;stroke-linejoin:round;stroke-miterlimit:4;stroke-dasharray:none;stroke-opacity:1"
             d="M 377.5,435.36218 L 136.5,435.36218"
             id="path15353" />
        </g>
        <g
           transform="matrix(-1,0,0,-1,764,774.7244)"
           style="stroke:#ffffff;stroke-width:40;stroke-linecap:round;stroke-linejoin:round;stroke-miterlimit:4;stroke-dasharray:none;stroke-opacity:1"
           id="g15355">
          <path
             style="fill:none;fill-rule:evenodd;stroke:#ffffff;stroke-width:40;stroke-linecap:round;stroke-linejoin:round;stroke-miterlimit:4;stroke-dasharray:none;stroke-opacity:1"
             d="M 136.5,676.36218 L 136.5,435.36218"
             id="path15357" />
          <path
             id="path15359"
             d="M 377.5,435.36218 L 136.5,435.36218"
             style="fill:none;fill-rule:evenodd;stroke:#ffffff;stroke-width:40;stroke-linecap:round;stroke-linejoin:round;stroke-miterlimit:4;stroke-dasharray:none;stroke-opacity:1" />
        </g>
      </g>
    </g>
    <g
       id="g15361"
       transform="matrix(0.125,0,0,0.125,465.625,370.50443)"
       inkscape:export-filename="/home/nikhil/workspace/pixelframe/images/logo.png"
       inkscape:export-xdpi="44.887779"
       inkscape:export-ydpi="44.887779">
      <rect
         style="fill:#aad400;fill-opacity:1;fill-rule:nonzero;stroke:#ffffff;stroke-width:23.72881317;stroke-linecap:round;stroke-linejoin:round;stroke-miterlimit:4;stroke-dasharray:none;stroke-dashoffset:0;stroke-opacity:1"
         id="rect15363"
         width="256.27118"
         height="256.27118"
         x="458.86441"
         y="170.72661" />
      <g
         transform="translate(20,20)"
         id="g15365">
        <g
           transform="translate(370,-217)"
           style="stroke:#ffffff;stroke-width:40;stroke-linecap:round;stroke-linejoin:round;stroke-miterlimit:4;stroke-dasharray:none;stroke-opacity:1"
           id="g15367">
          <path
             style="fill:none;fill-rule:evenodd;stroke:#ffffff;stroke-width:40;stroke-linecap:round;stroke-linejoin:round;stroke-miterlimit:4;stroke-dasharray:none;stroke-opacity:1"
             d="M 136.5,676.36218 L 136.5,435.36218"
             id="path15369" />
          <path
             id="path15371"
             d="M 377.5,435.36218 L 136.5,435.36218"
             style="fill:none;fill-rule:evenodd;stroke:#ffffff;stroke-width:40;stroke-linecap:round;stroke-linejoin:round;stroke-miterlimit:4;stroke-dasharray:none;stroke-opacity:1" />
        </g>
        <g
           id="g15373"
           style="stroke:#ffffff;stroke-width:40;stroke-linecap:round;stroke-linejoin:round;stroke-miterlimit:4;stroke-dasharray:none;stroke-opacity:1"
           transform="matrix(-1,0,0,-1,764,774.7244)">
          <path
             id="path15375"
             d="M 136.5,676.36218 L 136.5,435.36218"
             style="fill:none;fill-rule:evenodd;stroke:#ffffff;stroke-width:40;stroke-linecap:round;stroke-linejoin:round;stroke-miterlimit:4;stroke-dasharray:none;stroke-opacity:1" />
          <path
             style="fill:none;fill-rule:evenodd;stroke:#ffffff;stroke-width:40;stroke-linecap:round;stroke-linejoin:round;stroke-miterlimit:4;stroke-dasharray:none;stroke-opacity:1"
             d="M 377.5,435.36218 L 136.5,435.36218"
             id="path15377" />
        </g>
      </g>
    </g>
    <g
       transform="matrix(6.25e-2,0,0,6.25e-2,499.3125,461.18332)"
       id="g15379"
       inkscape:export-filename="/home/nikhil/workspace/pixelframe/images/logo.png"
       inkscape:export-xdpi="89.775558"
       inkscape:export-ydpi="89.775558">
      <rect
         y="170.72661"
         x="458.86441"
         height="256.27118"
         width="256.27118"
         id="rect15381"
         style="fill:#aad400;fill-opacity:1;fill-rule:nonzero;stroke:#ffffff;stroke-width:23.72881317;stroke-linecap:round;stroke-linejoin:round;stroke-miterlimit:4;stroke-dasharray:none;stroke-dashoffset:0;stroke-opacity:1" />
      <g
         id="g15383"
         transform="translate(20,20)">
        <g
           id="g15385"
           style="stroke:#ffffff;stroke-width:40;stroke-linecap:round;stroke-linejoin:round;stroke-miterlimit:4;stroke-dasharray:none;stroke-opacity:1"
           transform="translate(370,-217)">
          <path
             id="path15387"
             d="M 136.5,676.36218 L 136.5,435.36218"
             style="fill:none;fill-rule:evenodd;stroke:#ffffff;stroke-width:40;stroke-linecap:round;stroke-linejoin:round;stroke-miterlimit:4;stroke-dasharray:none;stroke-opacity:1" />
          <path
             style="fill:none;fill-rule:evenodd;stroke:#ffffff;stroke-width:40;stroke-linecap:round;stroke-linejoin:round;stroke-miterlimit:4;stroke-dasharray:none;stroke-opacity:1"
             d="M 377.5,435.36218 L 136.5,435.36218"
             id="path15389" />
        </g>
        <g
           transform="matrix(-1,0,0,-1,764,774.7244)"
           style="stroke:#ffffff;stroke-width:40;stroke-linecap:round;stroke-linejoin:round;stroke-miterlimit:4;stroke-dasharray:none;stroke-opacity:1"
           id="g15391">
          <path
             style="fill:none;fill-rule:evenodd;stroke:#ffffff;stroke-width:40;stroke-linecap:round;stroke-linejoin:round;stroke-miterlimit:4;stroke-dasharray:none;stroke-opacity:1"
             d="M 136.5,676.36218 L 136.5,435.36218"
             id="path15393" />
          <path
             id="path15395"
             d="M 377.5,435.36218 L 136.5,435.36218"
             style="fill:none;fill-rule:evenodd;stroke:#ffffff;stroke-width:40;stroke-linecap:round;stroke-linejoin:round;stroke-miterlimit:4;stroke-dasharray:none;stroke-opacity:1" />
        </g>
      </g>
    </g>
    <g
       id="g15529">
      <text
         sodipodi:linespacing="125%"
         id="text15417"
         y="787.86218"
         x="105.76611"
         style="font-size:6px;font-style:normal;font-weight:normal;line-height:125%;fill:#000000;fill-opacity:1;stroke:none;stroke-width:1px;stroke-linecap:butt;stroke-linejoin:miter;stroke-opacity:1;font-family:Bitstream Vera Sans"
         xml:space="preserve"><tspan
           style="font-size:30px;font-style:normal;font-variant:normal;font-weight:normal;font-stretch:normal;text-align:start;line-height:125%;writing-mode:lr-tb;text-anchor:start;fill:#ffffff;font-family:DejaVu Sans"
           y="787.86218"
           x="105.76611"
           id="tspan15419"
           sodipodi:role="line">Pixelframe</tspan></text>
      <g
         id="g15441"
         transform="matrix(0.1025561,0,0,0.1025561,15.55762,743.52457)">
        <rect
           style="fill:#aad400;fill-opacity:1;fill-rule:nonzero;stroke:#ffffff;stroke-width:23.72881317;stroke-linecap:round;stroke-linejoin:round;stroke-miterlimit:4;stroke-dasharray:none;stroke-dashoffset:0;stroke-opacity:1"
           id="rect15443"
           width="256.27118"
           height="256.27118"
           x="458.86441"
           y="170.72661" />
        <g
           transform="translate(20,20)"
           id="g15445">
          <g
             transform="translate(370,-217)"
             style="stroke:#ffffff;stroke-width:40;stroke-linecap:round;stroke-linejoin:round;stroke-miterlimit:4;stroke-dasharray:none;stroke-opacity:1"
             id="g15447">
            <path
               style="fill:none;fill-rule:evenodd;stroke:#ffffff;stroke-width:40;stroke-linecap:round;stroke-linejoin:round;stroke-miterlimit:4;stroke-dasharray:none;stroke-opacity:1"
               d="M 136.5,676.36218 L 136.5,435.36218"
               id="path15449" />
            <path
               id="path15451"
               d="M 377.5,435.36218 L 136.5,435.36218"
               style="fill:none;fill-rule:evenodd;stroke:#ffffff;stroke-width:40;stroke-linecap:round;stroke-linejoin:round;stroke-miterlimit:4;stroke-dasharray:none;stroke-opacity:1" />
          </g>
          <g
             id="g15453"
             style="stroke:#ffffff;stroke-width:40;stroke-linecap:round;stroke-linejoin:round;stroke-miterlimit:4;stroke-dasharray:none;stroke-opacity:1"
             transform="matrix(-1,0,0,-1,764,774.7244)">
            <path
               id="path15455"
               d="M 136.5,676.36218 L 136.5,435.36218"
               style="fill:none;fill-rule:evenodd;stroke:#ffffff;stroke-width:40;stroke-linecap:round;stroke-linejoin:round;stroke-miterlimit:4;stroke-dasharray:none;stroke-opacity:1" />
            <path
               style="fill:none;fill-rule:evenodd;stroke:#ffffff;stroke-width:40;stroke-linecap:round;stroke-linejoin:round;stroke-miterlimit:4;stroke-dasharray:none;stroke-opacity:1"
               d="M 377.5,435.36218 L 136.5,435.36218"
               id="path15457" />
          </g>
        </g>
      </g>
    </g>
    <g
       id="g15564"
       transform="translate(-88,-18)">
      <text
         xml:space="preserve"
         style="font-size:6px;font-style:normal;font-weight:normal;line-height:125%;fill:#000000;fill-opacity:1;stroke:none;stroke-width:1px;stroke-linecap:butt;stroke-linejoin:miter;stroke-opacity:1;font-family:Bitstream Vera Sans"
         x="190.76611"
         y="868.86218"
         id="text15492"
         sodipodi:linespacing="125%"><tspan
           sodipodi:role="line"
           id="tspan15494"
           x="190.76611"
           y="868.86218"
           style="font-size:30px;font-style:normal;font-variant:normal;font-weight:normal;font-stretch:normal;text-align:start;line-height:125%;writing-mode:lr-tb;text-anchor:start;fill:#ffffff;font-family:DejaVu Sans">Pixelframe</tspan></text>
      <path
         style="font-size:12px;font-style:normal;font-weight:normal;line-height:125%;opacity:0.80198017;fill:#666666;fill-opacity:1;stroke:none;stroke-width:1px;stroke-linecap:butt;stroke-linejoin:miter;stroke-opacity:1;font-family:Bitstream Vera Sans"
         d="M 193.70361,863.36861 L 193.70361,868.86861 L 196.67236,868.86861 L 196.67236,863.36861 L 193.70361,863.36861 z M 211.04736,863.36861 L 211.04736,868.86861 L 213.73486,868.86861 L 213.73486,863.36861 L 211.04736,863.36861 z M 221.46924,863.36861 L 217.39111,868.86861 L 220.57861,868.86861 L 224.64111,863.36861 L 221.46924,863.36861 z M 226.04736,863.36861 L 230.12549,868.86861 L 233.29736,868.86861 L 229.21924,863.36861 L 226.04736,863.36861 z M 235.31299,863.36861 C 235.66145,864.80056 236.31347,866.02535 237.29736,867.00923 C 238.83056,868.53267 240.91454,869.29048 243.53174,869.29048 C 244.57665,869.29048 245.60985,869.1772 246.62549,868.96236 C 247.6411,868.74752 248.62743,868.43502 249.59424,868.02486 L 249.59424,865.47798 C 248.63719,865.9858 247.66454,866.3647 246.68799,866.61861 C 245.72118,866.87252 244.72313,867.00923 243.68799,867.00923 C 241.90087,867.00923 240.50634,866.52291 239.50049,865.55611 C 238.91383,864.98096 238.4854,864.24862 238.20361,863.36861 L 235.31299,863.36861 z M 254.64111,863.36861 L 254.64111,868.86861 L 257.34424,868.86861 L 257.34424,863.36861 L 254.64111,863.36861 z M 263.40674,863.36861 L 263.40674,868.86861 L 266.10986,868.86861 L 266.10986,863.36861 L 263.40674,863.36861 z M 273.40674,863.36861 L 273.40674,868.86861 L 276.12549,868.86861 L 276.12549,863.36861 L 273.40674,863.36861 z M 284.87549,863.36861 C 284.85334,863.5999 284.85986,863.83973 284.85986,864.08736 C 284.85986,865.6694 285.34228,866.93697 286.32861,867.88423 C 287.3247,868.82173 288.66454,869.29048 290.34424,869.29048 C 291.67235,869.29048 292.80126,869.05611 293.71924,868.58736 C 294.63719,868.10884 295.40087,867.3647 296.01611,866.36861 L 296.01611,868.86861 L 298.70361,868.86861 L 298.70361,863.36861 L 295.73486,863.36861 C 295.51008,864.1638 295.15624,864.86129 294.65674,865.44673 C 293.75829,866.50142 292.55712,867.02486 291.06299,867.02486 C 289.979,867.02486 289.11962,866.75338 288.48486,866.19673 C 287.85986,865.63033 287.54736,864.87252 287.54736,863.91548 C 287.54736,863.72498 287.55749,863.54143 287.57861,863.36861 L 284.87549,863.36861 z M 304.17236,863.36861 L 304.17236,868.86861 L 306.89111,868.86861 L 306.89111,863.36861 L 304.17236,863.36861 z M 314.79736,863.36861 L 314.79736,868.86861 L 317.50049,868.86861 L 317.50049,863.36861 L 314.79736,863.36861 z M 325.42236,863.36861 L 325.42236,868.86861 L 328.12549,868.86861 L 328.12549,863.36861 L 325.42236,863.36861 z M 332.64111,863.36861 C 332.98957,864.80056 333.6416,866.02535 334.62549,867.00923 C 336.15869,868.53267 338.24267,869.29048 340.85986,869.29048 C 341.90477,869.29048 342.92235,869.1772 343.93799,868.96236 C 344.9536,868.74752 345.95555,868.43502 346.92236,868.02486 L 346.92236,865.47798 C 345.96532,865.9858 344.99266,866.3647 344.01611,866.61861 C 343.0493,866.87252 342.05126,867.00923 341.01611,867.00923 C 339.22899,867.00923 337.83446,866.52291 336.82861,865.55611 C 336.24116,864.98018 335.79787,864.25023 335.51611,863.36861 L 332.64111,863.36861 z "
         id="path15496" />
      <path
         style="font-size:12px;font-style:normal;font-weight:normal;line-height:125%;opacity:0.6831683;fill:#999999;fill-opacity:1;stroke:none;stroke-width:1px;stroke-linecap:butt;stroke-linejoin:miter;stroke-opacity:1;font-family:Bitstream Vera Sans"
         d="M 193.70361,856.36861 L 193.70361,863.36861 L 196.67236,863.36861 L 196.67236,860.07173 L 200.39111,860.07173 C 202.84227,860.07174 204.68797,859.51901 205.93799,858.41548 C 206.56786,857.86373 207.04492,857.18404 207.35986,856.36861 L 203.76611,856.36861 C 203.70495,856.43711 203.64577,856.50806 203.57861,856.57173 C 202.82665,857.28463 201.76805,857.63424 200.39111,857.63423 L 196.67236,857.63423 L 196.67236,856.36861 L 193.70361,856.36861 z M 211.04736,856.36861 L 211.04736,863.36861 L 213.73486,863.36861 L 213.73486,856.36861 L 211.04736,856.36861 z M 220.85986,856.36861 L 223.76611,860.27486 L 221.46924,863.36861 L 224.64111,863.36861 L 225.34424,862.41548 L 226.04736,863.36861 L 229.21924,863.36861 L 227.06299,860.44673 L 230.09424,856.36861 L 226.90674,856.36861 L 225.46924,858.30611 L 224.01611,856.36861 L 220.85986,856.36861 z M 235.89111,856.36861 C 235.30691,857.62602 235.01611,859.11434 235.01611,860.82173 C 235.01611,861.73682 235.10894,862.58589 235.29736,863.36861 L 238.18799,863.36861 C 237.9916,862.75494 237.87669,862.06731 237.82861,861.30611 L 250.21924,861.30611 L 250.21924,859.97798 C 250.21923,858.60879 250.0153,857.4153 249.60986,856.36861 L 246.79736,856.36861 C 247.26423,857.14296 247.51696,858.08192 247.53174,859.19673 L 237.92236,859.21236 C 238.02288,858.0779 238.33194,857.12825 238.84424,856.36861 L 235.89111,856.36861 z M 254.64111,856.36861 L 254.64111,863.36861 L 257.34424,863.36861 L 257.34424,856.36861 L 254.64111,856.36861 z M 263.40674,856.36861 L 263.40674,863.36861 L 266.10986,863.36861 L 266.10986,856.36861 L 263.40674,856.36861 z M 273.40674,856.36861 L 273.40674,863.36861 L 276.12549,863.36861 L 276.12549,860.21236 C 276.12548,858.59904 276.41894,857.32485 277.03174,856.36861 L 273.40674,856.36861 z M 295.59424,856.36861 C 295.86976,856.89714 296.0161,857.52484 296.01611,858.24361 L 296.01611,858.50923 L 292.23486,858.50923 C 289.78368,858.50924 287.94384,858.97799 286.70361,859.91548 C 285.63831,860.72715 285.03372,861.8768 284.89111,863.36861 L 287.57861,863.36861 C 287.69275,862.45441 288.10743,861.78702 288.81299,861.36861 C 289.65282,860.87057 291.15087,860.61862 293.32861,860.61861 L 296.01611,860.61861 L 296.01611,861.21236 C 296.01611,862.00338 295.91812,862.71778 295.73486,863.36861 L 298.70361,863.36861 L 298.70361,859.50923 C 298.70361,858.31824 298.56333,857.27148 298.29736,856.36861 L 295.59424,856.36861 z M 304.17236,856.36861 L 304.17236,863.36861 L 306.89111,863.36861 L 306.89111,859.58736 C 306.89111,858.29121 307.15056,857.22447 307.68799,856.36861 L 304.17236,856.36861 z M 314.39111,856.36861 C 314.65652,857.06524 314.79735,857.94808 314.79736,859.04048 L 314.79736,863.36861 L 317.50049,863.36861 L 317.50049,859.58736 C 317.50047,858.28894 317.78023,857.22415 318.31299,856.36861 L 314.39111,856.36861 z M 325.01611,856.36861 C 325.28261,857.06845 325.42235,857.95258 325.42236,859.04048 L 325.42236,863.36861 L 328.12549,863.36861 L 328.12549,858.96236 C 328.12548,858.0005 328.03607,857.13756 327.85986,856.36861 L 325.01611,856.36861 z M 333.21924,856.36861 C 332.63503,857.62602 332.34424,859.11434 332.34424,860.82173 C 332.34424,861.73682 332.43706,862.58589 332.62549,863.36861 L 335.51611,863.36861 C 335.31973,862.75494 335.20481,862.06731 335.15674,861.30611 L 347.54736,861.30611 L 347.54736,859.97798 C 347.54735,858.60879 347.34343,857.4153 346.93799,856.36861 L 344.12549,856.36861 C 344.59235,857.14296 344.84509,858.08192 344.85986,859.19673 L 335.25049,859.21236 C 335.35097,858.07826 335.64473,857.12813 336.15674,856.36861 L 333.21924,856.36861 z "
         id="path15498" />
      <g
         transform="matrix(0.1025561,0,0,0.1025561,102.81568,827.58708)"
         id="g15511">
        <rect
           y="170.72661"
           x="458.86441"
           height="256.27118"
           width="256.27118"
           id="rect15513"
           style="fill:#aad400;fill-opacity:1;fill-rule:nonzero;stroke:#ffffff;stroke-width:23.72881317;stroke-linecap:round;stroke-linejoin:round;stroke-miterlimit:4;stroke-dasharray:none;stroke-dashoffset:0;stroke-opacity:1" />
        <g
           id="g15515"
           transform="translate(20,20)">
          <g
             id="g15517"
             style="stroke:#ffffff;stroke-width:40;stroke-linecap:round;stroke-linejoin:round;stroke-miterlimit:4;stroke-dasharray:none;stroke-opacity:1"
             transform="translate(370,-217)">
            <path
               id="path15519"
               d="M 136.5,676.36218 L 136.5,435.36218"
               style="fill:none;fill-rule:evenodd;stroke:#ffffff;stroke-width:40;stroke-linecap:round;stroke-linejoin:round;stroke-miterlimit:4;stroke-dasharray:none;stroke-opacity:1" />
            <path
               style="fill:none;fill-rule:evenodd;stroke:#ffffff;stroke-width:40;stroke-linecap:round;stroke-linejoin:round;stroke-miterlimit:4;stroke-dasharray:none;stroke-opacity:1"
               d="M 377.5,435.36218 L 136.5,435.36218"
               id="path15521" />
          </g>
          <g
             transform="matrix(-1,0,0,-1,764,774.7244)"
             style="stroke:#ffffff;stroke-width:40;stroke-linecap:round;stroke-linejoin:round;stroke-miterlimit:4;stroke-dasharray:none;stroke-opacity:1"
             id="g15523">
            <path
               style="fill:none;fill-rule:evenodd;stroke:#ffffff;stroke-width:40;stroke-linecap:round;stroke-linejoin:round;stroke-miterlimit:4;stroke-dasharray:none;stroke-opacity:1"
               d="M 136.5,676.36218 L 136.5,435.36218"
               id="path15525" />
            <path
               id="path15527"
               d="M 377.5,435.36218 L 136.5,435.36218"
               style="fill:none;fill-rule:evenodd;stroke:#ffffff;stroke-width:40;stroke-linecap:round;stroke-linejoin:round;stroke-miterlimit:4;stroke-dasharray:none;stroke-opacity:1" />
          </g>
        </g>
      </g>
    </g>
  </g>
</svg>
